<svg width="81" height="81" viewBox="0 0 81 81" fill="none" xmlns="http://www.w3.org/2000/svg">
<g clip-path="url(#clip0_198_685)">
<rect y="0.783936" width="80.2083" height="80.2083" rx="40.1042" fill="url(#paint0_linear_198_685)"/>
<path d="M48.4593 31.3394H31.7492C30.7995 31.3394 29.8887 31.7166 29.2172 32.3881C28.5457 33.0596 28.1685 33.9704 28.1685 34.9201V46.8558C28.1685 47.8055 28.5457 48.7163 29.2172 49.3878C29.8887 50.0593 30.7995 50.4366 31.7492 50.4366H48.4593C49.4089 50.4366 50.3197 50.0593 50.9912 49.3878C51.6627 48.7163 52.04 47.8055 52.04 46.8558V34.9201C52.04 33.9704 51.6627 33.0596 50.9912 32.3881C50.3197 31.7166 49.4089 31.3394 48.4593 31.3394ZM47.6596 33.7265L40.1042 39.396L32.5489 33.7265H47.6596ZM48.4593 48.0494H31.7492C31.4326 48.0494 31.129 47.9237 30.9052 47.6998C30.6814 47.476 30.5556 47.1724 30.5556 46.8558V35.2185L39.3881 41.8428C39.5947 41.9978 39.846 42.0815 40.1042 42.0815C40.3625 42.0815 40.6138 41.9978 40.8204 41.8428L49.6528 35.2185V46.8558C49.6528 47.1724 49.5271 47.476 49.3032 47.6998C49.0794 47.9237 48.7758 48.0494 48.4593 48.0494Z" fill="white"/>
</g>
<defs>
<linearGradient id="paint0_linear_198_685" x1="0" y1="0.783936" x2="80" y2="80.7839" gradientUnits="userSpaceOnUse">
<stop stop-color="#9C530F"/>
<stop offset="1" stop-color="#CFAF06"/>
</linearGradient>
<clipPath id="clip0_198_685">
<rect y="0.783936" width="80.2083" height="80.2083" rx="40.1042" fill="white"/>
</clipPath>
</defs>
</svg>
