<svg width="326" height="199" viewBox="0 0 326 199" fill="none" xmlns="http://www.w3.org/2000/svg">
<mask id="mask0_198_638" style="mask-type:luminance" maskUnits="userSpaceOnUse" x="99" y="10" width="128" height="128">
<path d="M99.5054 10.3721H226.494V137.36H99.5054V10.3721Z" fill="white"/>
</mask>
<g mask="url(#mask0_198_638)">
<mask id="mask1_198_638" style="mask-type:luminance" maskUnits="userSpaceOnUse" x="99" y="10" width="128" height="128">
<path d="M163 10.3721C127.933 10.3721 99.5054 38.7993 99.5054 73.8662C99.5054 108.933 127.933 137.36 163 137.36C198.066 137.36 226.494 108.933 226.494 73.8662C226.494 38.7993 198.066 10.3721 163 10.3721Z" fill="white"/>
</mask>
<g mask="url(#mask1_198_638)">
<path d="M99.5054 10.3721H226.494V137.36H99.5054V10.3721Z" fill="black"/>
</g>
</g>
<mask id="mask2_198_638" style="mask-type:luminance" maskUnits="userSpaceOnUse" x="103" y="14" width="120" height="120">
<path d="M103.162 14.0293H222.837V133.704H103.162V14.0293Z" fill="white"/>
</mask>
<g mask="url(#mask2_198_638)">
<mask id="mask3_198_638" style="mask-type:luminance" maskUnits="userSpaceOnUse" x="103" y="14" width="120" height="120">
<path d="M163 14.0293C129.952 14.0293 103.162 40.8196 103.162 73.8668C103.162 106.914 129.952 133.704 163 133.704C196.047 133.704 222.837 106.914 222.837 73.8668C222.837 40.8196 196.047 14.0293 163 14.0293Z" fill="white"/>
</mask>
<g mask="url(#mask3_198_638)">
<path d="M103.162 14.0293H222.837V133.704H103.162V14.0293Z" fill="#FFDF17"/>
</g>
</g>
<path d="M156.234 54.012H169.765V100.014H156.234V54.012Z" fill="#EBECEC"/>
<path d="M180.927 77.3517C180.927 77.6394 180.92 77.9271 180.905 78.2146C180.891 78.5021 180.87 78.7891 180.842 79.0758C180.814 79.3623 180.778 79.6477 180.736 79.9324C180.694 80.2173 180.645 80.5008 180.589 80.7832C180.533 81.0653 180.469 81.3462 180.399 81.6256C180.329 81.9047 180.253 82.182 180.169 82.4576C180.086 82.7329 179.995 83.0062 179.899 83.2772C179.801 83.5482 179.698 83.8167 179.588 84.0828C179.478 84.3488 179.361 84.6117 179.238 84.872C179.115 85.1321 178.985 85.3892 178.85 85.6432C178.714 85.897 178.572 86.1474 178.424 86.3943C178.276 86.6413 178.122 86.8844 177.962 87.1237C177.803 87.363 177.637 87.5983 177.465 87.8295C177.294 88.0607 177.117 88.2875 176.934 88.5101C176.751 88.7327 176.564 88.9505 176.37 89.1639C176.177 89.3771 175.979 89.5855 175.775 89.7891C175.571 89.9926 175.363 90.1911 175.15 90.3843C174.936 90.5777 174.718 90.7656 174.496 90.9484C174.273 91.1309 174.047 91.3079 173.815 91.4795C173.584 91.6509 173.349 91.8166 173.11 91.9766C172.87 92.1366 172.627 92.2905 172.38 92.4385C172.133 92.5863 171.883 92.7283 171.629 92.8639C171.375 92.9998 171.118 93.1291 170.858 93.252C170.598 93.3752 170.334 93.4918 170.068 93.6019C169.803 93.7121 169.534 93.8156 169.263 93.9127C168.992 94.0098 168.719 94.1 168.443 94.1834C168.168 94.2671 167.891 94.3439 167.611 94.4138C167.332 94.4836 167.051 94.5467 166.769 94.603C166.487 94.659 166.203 94.7082 165.918 94.7505C165.634 94.7928 165.348 94.8281 165.061 94.8562C164.775 94.8844 164.488 94.9057 164.2 94.9196C163.913 94.9338 163.625 94.9409 163.337 94.9409C163.05 94.9409 162.762 94.9338 162.474 94.9196C162.187 94.9057 161.9 94.8844 161.613 94.8562C161.327 94.8281 161.041 94.7928 160.757 94.7505C160.472 94.7082 160.188 94.659 159.906 94.603C159.624 94.5467 159.343 94.4836 159.064 94.4138C158.784 94.3439 158.507 94.2671 158.232 94.1834C157.956 94.1 157.683 94.0098 157.412 93.9127C157.141 93.8156 156.872 93.7121 156.606 93.6019C156.34 93.4918 156.077 93.3752 155.817 93.252C155.557 93.1291 155.3 92.9998 155.046 92.8639C154.792 92.7283 154.542 92.5863 154.295 92.4385C154.048 92.2905 153.805 92.1366 153.565 91.9766C153.326 91.8166 153.091 91.6509 152.859 91.4795C152.628 91.3079 152.401 91.1309 152.179 90.9484C151.956 90.7656 151.738 90.5777 151.525 90.3843C151.312 90.1911 151.103 89.9926 150.9 89.7891C150.696 89.5855 150.498 89.3771 150.305 89.1639C150.111 88.9505 149.923 88.7327 149.741 88.5101C149.558 88.2875 149.381 88.0607 149.209 87.8295C149.038 87.5983 148.872 87.363 148.712 87.1237C148.553 86.8844 148.398 86.6413 148.251 86.3943C148.103 86.1474 147.961 85.897 147.825 85.6432C147.689 85.3892 147.56 85.1321 147.437 84.872C147.314 84.6117 147.197 84.3488 147.087 84.0828C146.977 83.8167 146.873 83.5482 146.776 83.2772C146.679 83.0062 146.589 82.7329 146.506 82.4576C146.422 82.182 146.345 81.9047 146.275 81.6256C146.205 81.3462 146.142 81.0653 146.086 80.7832C146.03 80.5008 145.981 80.2173 145.938 79.9324C145.896 79.6477 145.861 79.3623 145.833 79.0758C145.805 78.7891 145.784 78.5021 145.769 78.2146C145.755 77.9271 145.748 77.6394 145.748 77.3517C145.748 77.0637 145.755 76.776 145.769 76.4885C145.784 76.201 145.805 75.914 145.833 75.6276C145.861 75.3411 145.896 75.0554 145.938 74.7707C145.981 74.486 146.03 74.2023 146.086 73.9202C146.142 73.6378 146.205 73.3571 146.275 73.0778C146.345 72.7986 146.422 72.5213 146.506 72.2457C146.589 71.9702 146.679 71.6969 146.776 71.4259C146.873 71.1549 146.977 70.8864 147.087 70.6205C147.197 70.3546 147.314 70.0914 147.437 69.8313C147.56 69.571 147.689 69.3139 147.825 69.0602C147.961 68.8061 148.103 68.5559 148.251 68.309C148.398 68.0621 148.553 67.819 148.712 67.5797C148.872 67.3401 149.038 67.1048 149.209 66.8736C149.381 66.6424 149.558 66.4155 149.741 66.1932C149.923 65.9706 150.111 65.7526 150.305 65.5394C150.498 65.3262 150.696 65.1176 150.9 64.914C151.103 64.7107 151.312 64.5122 151.525 64.3188C151.738 64.1256 151.956 63.9375 152.179 63.755C152.401 63.5724 152.628 63.3952 152.859 63.2239C153.091 63.0522 153.326 62.8867 153.565 62.7267C153.805 62.5668 154.048 62.4129 154.295 62.2648C154.542 62.1168 154.792 61.9751 155.046 61.8392C155.3 61.7036 155.557 61.5743 155.817 61.4511C156.077 61.3281 156.34 61.2115 156.606 61.1012C156.872 60.9912 157.141 60.8875 157.412 60.7904C157.683 60.6936 157.956 60.6033 158.232 60.5197C158.507 60.4363 158.784 60.3595 159.064 60.2895C159.343 60.2195 159.624 60.1564 159.906 60.1004C160.188 60.0441 160.472 59.9949 160.757 59.9528C161.041 59.9105 161.327 59.8753 161.613 59.8471C161.9 59.8187 162.187 59.7977 162.474 59.7835C162.762 59.7693 163.05 59.7625 163.337 59.7625C163.625 59.7625 163.913 59.7693 164.2 59.7835C164.488 59.7977 164.775 59.8187 165.061 59.8471C165.348 59.8753 165.634 59.9105 165.918 59.9528C166.203 59.9949 166.487 60.0441 166.769 60.1004C167.051 60.1564 167.332 60.2195 167.611 60.2895C167.891 60.3595 168.168 60.4363 168.443 60.5197C168.719 60.6033 168.992 60.6936 169.263 60.7904C169.534 60.8875 169.803 60.9912 170.068 61.1012C170.334 61.2115 170.598 61.3281 170.858 61.4511C171.118 61.5743 171.375 61.7036 171.629 61.8392C171.883 61.9751 172.133 62.1168 172.38 62.2648C172.627 62.4129 172.87 62.5668 173.11 62.7267C173.349 62.8867 173.584 63.0522 173.815 63.2239C174.047 63.3952 174.273 63.5724 174.496 63.755C174.718 63.9375 174.936 64.1256 175.15 64.3188C175.363 64.5122 175.571 64.7107 175.775 64.914C175.979 65.1176 176.177 65.3262 176.37 65.5394C176.564 65.7526 176.751 65.9706 176.934 66.1932C177.117 66.4155 177.294 66.6424 177.465 66.8736C177.637 67.1048 177.803 67.3401 177.962 67.5797C178.122 67.819 178.276 68.0621 178.424 68.309C178.572 68.5559 178.714 68.8061 178.85 69.0602C178.985 69.3139 179.115 69.571 179.238 69.8313C179.361 70.0914 179.478 70.3546 179.588 70.6205C179.698 70.8864 179.801 71.1549 179.899 71.4259C179.995 71.6969 180.086 71.9702 180.169 72.2457C180.253 72.5213 180.329 72.7986 180.399 73.0778C180.469 73.3571 180.533 73.6378 180.589 73.9202C180.645 74.2023 180.694 74.486 180.736 74.7707C180.778 75.0554 180.814 75.3411 180.842 75.6276C180.87 75.914 180.891 76.201 180.905 76.4885C180.92 76.776 180.927 77.0637 180.927 77.3517Z" fill="#F9A40E"/>
<path d="M175.515 77.3516C175.515 77.5509 175.51 77.7501 175.5 77.9491C175.49 78.1482 175.475 78.3469 175.456 78.5451C175.436 78.7434 175.412 78.9411 175.383 79.1384C175.354 79.3353 175.319 79.5318 175.281 79.7273C175.242 79.9227 175.198 80.1172 175.149 80.3103C175.101 80.5038 175.048 80.6957 174.99 80.8863C174.932 81.0772 174.87 81.2663 174.803 81.4539C174.735 81.6415 174.664 81.8273 174.587 82.0116C174.511 82.1957 174.431 82.3777 174.345 82.5579C174.26 82.7382 174.171 82.9162 174.077 83.0918C173.983 83.2675 173.884 83.4409 173.782 83.6118C173.68 83.7829 173.573 83.9512 173.462 84.1168C173.352 84.2826 173.237 84.4453 173.118 84.6055C172.999 84.7655 172.877 84.9227 172.751 85.0768C172.624 85.2307 172.494 85.3815 172.36 85.5293C172.226 85.6769 172.089 85.8211 171.948 85.9621C171.807 86.103 171.663 86.2404 171.515 86.3743C171.367 86.5081 171.217 86.6382 171.062 86.7647C170.909 86.8912 170.751 87.0136 170.591 87.1323C170.431 87.2512 170.268 87.3657 170.103 87.4765C169.937 87.5873 169.768 87.6938 169.598 87.7962C169.427 87.8986 169.253 87.997 169.078 88.0908C168.902 88.1848 168.724 88.2743 168.544 88.3595C168.364 88.4449 168.182 88.5255 167.997 88.6019C167.813 88.6782 167.627 88.7497 167.44 88.8168C167.252 88.884 167.063 88.9466 166.872 89.0044C166.682 89.0622 166.489 89.1155 166.296 89.1639C166.103 89.2123 165.908 89.2559 165.713 89.2947C165.517 89.3337 165.321 89.3677 165.124 89.3969C164.927 89.4263 164.729 89.4506 164.531 89.4701C164.332 89.4896 164.134 89.5043 163.935 89.514C163.736 89.5239 163.537 89.5287 163.337 89.5287C163.138 89.5287 162.939 89.5239 162.74 89.514C162.541 89.5043 162.342 89.4896 162.144 89.4701C161.945 89.4506 161.748 89.4263 161.55 89.3969C161.354 89.3677 161.157 89.3337 160.962 89.2947C160.766 89.2559 160.572 89.2123 160.379 89.1639C160.185 89.1155 159.993 89.0622 159.803 89.0044C159.612 88.9466 159.423 88.884 159.235 88.8168C159.047 88.7497 158.862 88.6782 158.677 88.6019C158.493 88.5255 158.311 88.4447 158.131 88.3595C157.951 88.2743 157.773 88.1848 157.597 88.0908C157.421 87.997 157.248 87.8986 157.077 87.7962C156.906 87.6938 156.738 87.5873 156.572 87.4765C156.406 87.3657 156.244 87.2512 156.083 87.1323C155.923 87.0136 155.766 86.8912 155.612 86.7647C155.458 86.6382 155.307 86.5081 155.16 86.3743C155.012 86.2404 154.868 86.103 154.727 85.9621C154.586 85.8211 154.448 85.6769 154.315 85.5293C154.181 85.3815 154.051 85.2307 153.924 85.0768C153.798 84.9227 153.675 84.7655 153.557 84.6055C153.438 84.4453 153.323 84.2826 153.212 84.1168C153.102 83.9512 152.995 83.7829 152.893 83.6118C152.79 83.4409 152.692 83.2675 152.598 83.0918C152.504 82.9162 152.415 82.7382 152.329 82.5579C152.244 82.3777 152.163 82.1957 152.087 82.0116C152.011 81.8273 151.939 81.6415 151.872 81.4539C151.805 81.2663 151.742 81.0772 151.684 80.8863C151.627 80.6957 151.573 80.5038 151.525 80.3103C151.477 80.1172 151.433 79.9227 151.394 79.7273C151.355 79.5318 151.321 79.3353 151.292 79.1384C151.263 78.9411 151.238 78.7434 151.219 78.5451C151.199 78.3469 151.184 78.1482 151.175 77.9491C151.165 77.7501 151.16 77.5509 151.16 77.3516C151.16 77.1524 151.165 76.9531 151.175 76.7541C151.184 76.5551 151.199 76.3563 151.219 76.1581C151.238 75.9596 151.263 75.7619 151.292 75.5649C151.321 75.3677 151.355 75.1714 151.394 74.976C151.433 74.7805 151.477 74.5861 151.525 74.3927C151.573 74.1995 151.627 74.0073 151.684 73.8167C151.742 73.6261 151.805 73.4369 151.872 73.2491C151.939 73.0615 152.011 72.8757 152.087 72.6916C152.163 72.5073 152.244 72.3253 152.329 72.1451C152.415 71.9651 152.504 71.7871 152.598 71.6112C152.692 71.4355 152.79 71.2621 152.893 71.0912C152.995 70.9204 153.102 70.752 153.212 70.5862C153.323 70.4207 153.438 70.2577 153.557 70.0977C153.675 69.9375 153.798 69.7806 153.924 69.6264C154.051 69.4723 154.181 69.3215 154.315 69.1739C154.448 69.0261 154.586 68.8819 154.727 68.7409C154.868 68.6 155.012 68.4626 155.16 68.329C155.307 68.1951 155.458 68.0648 155.612 67.9386C155.766 67.8121 155.923 67.6894 156.083 67.5707C156.244 67.4521 156.406 67.3373 156.572 67.2267C156.738 67.1159 156.906 67.0092 157.077 66.9068C157.248 66.8044 157.421 66.7063 157.597 66.6122C157.773 66.5184 157.951 66.4287 158.131 66.3435C158.311 66.2583 158.493 66.1777 158.677 66.1014C158.862 66.0251 159.047 65.9533 159.235 65.8862C159.423 65.819 159.612 65.7566 159.803 65.6988C159.993 65.6408 160.185 65.5878 160.379 65.5394C160.572 65.4909 160.766 65.4473 160.962 65.4083C161.157 65.3695 161.354 65.3355 161.55 65.3061C161.748 65.277 161.945 65.2527 162.144 65.2331C162.342 65.2136 162.541 65.1989 162.74 65.189C162.939 65.1794 163.138 65.1743 163.337 65.1743C163.537 65.1743 163.736 65.1794 163.935 65.189C164.134 65.1989 164.332 65.2136 164.531 65.2331C164.729 65.2527 164.927 65.277 165.124 65.3061C165.321 65.3355 165.517 65.3695 165.713 65.4083C165.908 65.4473 166.103 65.4909 166.296 65.5394C166.489 65.5878 166.682 65.6408 166.872 65.6988C167.063 65.7566 167.252 65.819 167.44 65.8862C167.627 65.9533 167.813 66.0251 167.997 66.1014C168.182 66.1777 168.364 66.2583 168.544 66.3435C168.724 66.4287 168.902 66.5184 169.078 66.6122C169.253 66.7063 169.427 66.8044 169.598 66.9068C169.768 67.0092 169.937 67.1159 170.103 67.2267C170.268 67.3373 170.431 67.4521 170.591 67.5707C170.751 67.6894 170.909 67.8121 171.062 67.9386C171.217 68.0648 171.367 68.1951 171.515 68.329C171.663 68.4626 171.807 68.6 171.948 68.7409C172.089 68.8819 172.226 69.0261 172.36 69.1739C172.494 69.3215 172.624 69.4723 172.751 69.6264C172.877 69.7806 172.999 69.9375 173.118 70.0977C173.237 70.2577 173.352 70.4207 173.462 70.5862C173.573 70.752 173.68 70.9204 173.782 71.0912C173.884 71.2621 173.983 71.4355 174.077 71.6112C174.171 71.7871 174.26 71.9651 174.345 72.1451C174.431 72.3253 174.511 72.5073 174.587 72.6916C174.664 72.8757 174.735 73.0615 174.803 73.2491C174.87 73.4369 174.932 73.6261 174.99 73.8167C175.048 74.0073 175.101 74.1995 175.149 74.3927C175.198 74.5861 175.242 74.7805 175.281 74.976C175.319 75.1714 175.354 75.3677 175.383 75.5649C175.412 75.7619 175.436 75.9596 175.456 76.1581C175.475 76.3563 175.49 76.5551 175.5 76.7541C175.51 76.9531 175.515 77.1524 175.515 77.3516Z" fill="#FFC107"/>
<path d="M126.468 48.6001H199.531V54.0123H126.468V48.6001Z" fill="#EBECEC"/>
<path d="M196.825 48.5995H129.174V41.8344L162.999 32.3633L196.825 41.8344V48.5995Z" fill="#EBECEC"/>
<path d="M163 37.7759L134.586 45.894V48.6H191.413V45.894L163 37.7759Z" fill="#F9A40E"/>
<path d="M127.821 54.012H141.352V59.4239H127.821V54.012Z" fill="#EBECEC"/>
<path d="M127.821 94.6021H141.352V100.014H127.821V94.6021Z" fill="#EBECEC"/>
<path d="M129.174 59.4238H139.998V94.6025H129.174V59.4238Z" fill="#EBECEC"/>
<path d="M184.647 54.012H198.177V59.4239H184.647V54.012Z" fill="#EBECEC"/>
<path d="M126.468 100.014H199.531V105.427H126.468V100.014Z" fill="#EBECEC"/>
<path d="M123.762 105.427H202.237V110.839H123.762V105.427Z" fill="#EBECEC"/>
<path d="M184.647 94.6021H198.177V100.014H184.647V94.6021Z" fill="#EBECEC"/>
<path d="M186.001 59.4238H196.825V94.6025H186.001V59.4238Z" fill="#EBECEC"/>
<path d="M162.831 63.7864C155.37 63.7864 149.3 69.8561 149.3 77.3167C149.3 84.7772 155.37 90.847 162.831 90.847C170.291 90.847 176.361 84.7772 176.361 77.3167C176.361 69.8561 170.291 63.7864 162.831 63.7864ZM162.831 88.1407C156.862 88.1407 152.007 83.2853 152.007 77.3167C152.007 71.348 156.862 66.4926 162.831 66.4926C168.799 66.4926 173.655 71.348 173.655 77.3167C173.655 83.2853 168.799 88.1407 162.831 88.1407Z" fill="black"/>
<path d="M166.444 70.9457V69.9829C166.444 69.2355 165.838 68.6299 165.091 68.6299C164.344 68.6299 163.738 69.2355 163.738 69.9829V70.5388H162.874V69.9829C162.874 69.2355 162.268 68.6299 161.521 68.6299C160.773 68.6299 160.168 69.2355 160.168 69.9829V70.5388H158.843C158.096 70.5388 157.49 71.1447 157.49 71.892C157.49 72.6391 158.096 73.245 158.843 73.245H159.225V81.4486H158.843C158.096 81.4486 157.49 82.0545 157.49 82.8018C157.49 83.5489 158.096 84.1548 158.843 84.1548H160.168V84.711C160.168 85.4581 160.773 86.064 161.521 86.064C162.268 86.064 162.874 85.4581 162.874 84.711V84.1548H163.738V84.711C163.738 85.4581 164.344 86.064 165.091 86.064C165.838 86.064 166.444 85.4581 166.444 84.711V83.7479C167.808 83.0867 168.75 81.6886 168.75 80.0746C168.75 79.0268 168.353 78.0703 167.701 77.347C168.353 76.6235 168.75 75.6673 168.75 74.6195C168.75 73.0052 167.808 71.6071 166.444 70.9457ZM166.044 80.0746C166.044 80.8323 165.427 81.4488 164.669 81.4488H161.931V78.7H164.669C165.427 78.7 166.044 79.3166 166.044 80.0746ZM161.931 75.9941V73.245H164.669C165.427 73.245 166.044 73.8618 166.044 74.6195C166.044 75.3773 165.427 75.9941 164.669 75.9941H161.931Z" fill="black"/>
<mask id="mask4_198_638" style="mask-type:luminance" maskUnits="userSpaceOnUse" x="122" y="31" width="82" height="82">
<path d="M122.4 31.0012H203.601V112.194H122.4V31.0012Z" fill="white"/>
</mask>
<g mask="url(#mask4_198_638)">
<path d="M202.236 104.073H200.883V100.014C200.883 99.2669 200.278 98.661 199.53 98.661V94.6021C199.53 93.8547 198.925 93.2488 198.177 93.2488V60.7764C198.925 60.7764 199.53 60.1707 199.53 59.4234V55.3644C200.278 55.3644 200.883 54.7586 200.883 54.0115V48.5993C200.883 47.8522 200.278 47.2463 199.53 47.2463H198.177V41.8342C198.177 41.2273 197.773 40.6949 197.189 40.5311L163.364 31.06C163.125 30.9933 162.873 30.9933 162.634 31.06L128.809 40.5311C128.224 40.6949 127.82 41.2273 127.82 41.8342V47.2463H126.467C125.72 47.2463 125.114 47.8522 125.114 48.5993V54.0115C125.114 54.7586 125.72 55.3644 126.467 55.3644V59.4234C126.467 60.1707 127.073 60.7764 127.82 60.7764V93.2488C127.073 93.2488 126.467 93.8547 126.467 94.6021V98.661C125.72 98.661 125.114 99.2669 125.114 100.014V104.073H123.761C123.014 104.073 122.408 104.679 122.408 105.426V110.838C122.408 111.585 123.014 112.191 123.761 112.191H202.236C202.984 112.191 203.589 111.585 203.589 110.838V105.426C203.589 104.679 202.984 104.073 202.236 104.073ZM171.117 98.661V94.4102C177.643 91.3663 182.177 84.7431 182.177 77.0798C182.177 69.4164 177.643 62.7938 171.117 59.7496V55.3644H183.294V59.4234C183.294 60.1707 183.9 60.7764 184.647 60.7764V93.2488C183.9 93.2488 183.294 93.8547 183.294 94.6021V98.661H171.117ZM142.704 98.661V94.6021C142.704 93.8547 142.098 93.2488 141.351 93.2488V60.7764C142.098 60.7764 142.704 60.1707 142.704 59.4234V55.3644H154.881V59.8125C148.427 62.8843 143.955 69.4692 143.955 77.08C143.955 84.6909 148.427 91.2755 154.881 94.3473V98.661H142.704ZM138.644 60.7764V93.2488H135.938V60.7764H138.644ZM163.066 93.4851C154.02 93.4851 146.661 86.1257 146.661 77.0798C146.661 68.0338 154.02 60.6744 163.066 60.6744C172.112 60.6744 179.471 68.0338 179.471 77.0798C179.471 86.1257 172.112 93.4851 163.066 93.4851ZM168.411 58.7303C166.714 58.2352 164.921 57.9687 163.066 57.9687C161.162 57.9687 159.323 58.2496 157.587 58.7703V55.3644H168.411V58.7303ZM157.587 95.3897C159.323 95.9102 161.162 96.1913 163.066 96.1913C164.921 96.1913 166.714 95.9246 168.411 95.4298V98.661H157.587V95.3897ZM187.353 93.2488V60.7764H190.059V93.2488H187.353ZM186 95.955H196.824V98.661H186V95.955ZM195.471 93.2488H192.765V60.7764H195.471V93.2488ZM196.824 58.0704H186V55.3644H196.824V58.0704ZM130.526 42.8604L162.999 33.768L195.471 42.8604V47.2463H192.765V45.8933C192.765 45.2892 192.365 44.7581 191.784 44.5923L163.37 36.4742C163.128 36.4047 162.87 36.4047 162.627 36.4742L134.214 44.5923C133.633 44.7581 133.233 45.2892 133.233 45.8933V47.2463H130.526V42.8604ZM190.059 47.2463H135.938V46.9137L162.999 39.1822L190.059 46.9137V47.2463ZM127.82 49.9523H198.177V52.6585H127.82V49.9523ZM139.997 55.3644V58.0704H129.173V55.3644H139.997ZM130.526 60.7764H133.233V93.2488H130.526V60.7764ZM129.173 95.955H139.997V98.661H129.173V95.955ZM127.82 101.367H198.177V104.073H127.82V101.367ZM200.883 109.485H125.114V106.779H200.883V109.485Z" fill="black"/>
</g>
<path opacity="0.7" d="M16.818 192.375V190.84L22.5793 184.534C23.2555 183.795 23.8123 183.153 24.2498 182.607C24.6873 182.056 25.0112 181.539 25.2214 181.056C25.4373 180.568 25.5452 180.056 25.5452 179.522C25.5452 178.909 25.3975 178.377 25.1021 177.928C24.8123 177.48 24.4146 177.133 23.9089 176.889C23.4032 176.644 22.835 176.522 22.2043 176.522C21.5339 176.522 20.9487 176.661 20.4487 176.94C19.9543 177.213 19.5708 177.596 19.2981 178.09C19.031 178.585 18.8975 179.164 18.8975 179.829H16.8862C16.8862 178.806 17.1219 177.909 17.5935 177.136C18.0651 176.363 18.7072 175.761 19.5197 175.329C20.3379 174.897 21.2555 174.681 22.2725 174.681C23.2952 174.681 24.2015 174.897 24.9913 175.329C25.781 175.761 26.4004 176.343 26.8492 177.076C27.2981 177.809 27.5225 178.625 27.5225 179.522C27.5225 180.164 27.406 180.792 27.1731 181.406C26.9458 182.014 26.5481 182.693 25.9799 183.443C25.4174 184.187 24.6362 185.096 23.6362 186.17L19.7157 190.363V190.5H27.8293V192.375H16.818ZM38.0954 192.613C36.8114 192.613 35.7176 192.264 34.8142 191.565C33.9108 190.86 33.2204 189.84 32.7432 188.505C32.2659 187.164 32.0273 185.545 32.0273 183.647C32.0273 181.761 32.2659 180.15 32.7432 178.815C33.2261 177.474 33.9193 176.451 34.8227 175.747C35.7318 175.036 36.8227 174.681 38.0954 174.681C39.3682 174.681 40.4562 175.036 41.3596 175.747C42.2687 176.451 42.9619 177.474 43.4392 178.815C43.9221 180.15 44.1636 181.761 44.1636 183.647C44.1636 185.545 43.925 187.164 43.4477 188.505C42.9704 189.84 42.2801 190.86 41.3767 191.565C40.4733 192.264 39.3795 192.613 38.0954 192.613ZM38.0954 190.738C39.3682 190.738 40.3568 190.125 41.0614 188.897C41.7659 187.67 42.1182 185.92 42.1182 183.647C42.1182 182.136 41.9562 180.849 41.6324 179.786C41.3142 178.724 40.854 177.914 40.2517 177.357C39.6551 176.801 38.9364 176.522 38.0954 176.522C36.8341 176.522 35.8483 177.144 35.1381 178.389C34.4278 179.627 34.0727 181.38 34.0727 183.647C34.0727 185.159 34.2318 186.443 34.55 187.5C34.8682 188.556 35.3256 189.36 35.9221 189.911C36.5244 190.463 37.2489 190.738 38.0954 190.738ZM48.4553 192.375V190.84L54.2167 184.534C54.8928 183.795 55.4496 183.153 55.8871 182.607C56.3246 182.056 56.6485 181.539 56.8587 181.056C57.0746 180.568 57.1826 180.056 57.1826 179.522C57.1826 178.909 57.0348 178.377 56.7394 177.928C56.4496 177.48 56.0519 177.133 55.5462 176.889C55.0405 176.644 54.4723 176.522 53.8417 176.522C53.1712 176.522 52.586 176.661 52.086 176.94C51.5917 177.213 51.2081 177.596 50.9354 178.09C50.6684 178.585 50.5348 179.164 50.5348 179.829H48.5235C48.5235 178.806 48.7593 177.909 49.2309 177.136C49.7025 176.363 50.3445 175.761 51.157 175.329C51.9752 174.897 52.8928 174.681 53.9098 174.681C54.9326 174.681 55.8388 174.897 56.6286 175.329C57.4184 175.761 58.0377 176.343 58.4865 177.076C58.9354 177.809 59.1598 178.625 59.1598 179.522C59.1598 180.164 59.0434 180.792 58.8104 181.406C58.5831 182.014 58.1854 182.693 57.6172 183.443C57.0547 184.187 56.2735 185.096 55.2735 186.17L51.353 190.363V190.5H59.4667V192.375H48.4553ZM69.9373 192.613C68.8123 192.613 67.8095 192.42 66.9288 192.034C66.0538 191.647 65.3578 191.11 64.8407 190.423C64.3294 189.73 64.051 188.926 64.0055 188.011H66.1532C66.1987 188.573 66.3919 189.059 66.7328 189.468C67.0737 189.872 67.5197 190.184 68.0708 190.406C68.622 190.627 69.2328 190.738 69.9032 190.738C70.6532 190.738 71.318 190.607 71.8975 190.346C72.4771 190.085 72.9316 189.721 73.2612 189.255C73.5907 188.789 73.7555 188.25 73.7555 187.636C73.7555 186.994 73.5964 186.428 73.2782 185.94C72.96 185.446 72.4941 185.059 71.8805 184.781C71.2669 184.502 70.5169 184.363 69.6305 184.363H68.2328V182.488H69.6305C70.3237 182.488 70.9316 182.363 71.4544 182.113C71.9828 181.863 72.3947 181.511 72.6902 181.056C72.9913 180.602 73.1419 180.068 73.1419 179.454C73.1419 178.863 73.0112 178.349 72.7498 177.911C72.4885 177.474 72.1191 177.133 71.6419 176.889C71.1703 176.644 70.6135 176.522 69.9714 176.522C69.3691 176.522 68.801 176.633 68.2669 176.855C67.7385 177.071 67.3066 177.386 66.9714 177.801C66.6362 178.21 66.4544 178.704 66.426 179.284H64.3805C64.4146 178.369 64.6902 177.568 65.2072 176.88C65.7242 176.187 66.4004 175.647 67.2356 175.261C68.0765 174.875 68.9998 174.681 70.0055 174.681C71.085 174.681 72.0112 174.9 72.7839 175.338C73.5566 175.769 74.1504 176.34 74.5652 177.051C74.9799 177.761 75.1873 178.528 75.1873 179.352C75.1873 180.335 74.9288 181.173 74.4117 181.866C73.9004 182.559 73.2044 183.039 72.3237 183.306V183.443C73.426 183.625 74.2867 184.093 74.9061 184.849C75.5254 185.599 75.835 186.528 75.835 187.636C75.835 188.585 75.5765 189.437 75.0595 190.193C74.5481 190.943 73.8492 191.534 72.9629 191.965C72.0765 192.397 71.068 192.613 69.9373 192.613ZM89.1996 192.375H86.9837L93.3928 174.92H95.5746L101.984 192.375H99.7678L94.5519 177.681H94.4155L89.1996 192.375ZM90.0178 185.556H98.9496V187.431H90.0178V185.556ZM107.494 174.92V192.375H105.483V174.92H107.494ZM114.243 174.92V192.375H112.231V174.92H114.243ZM126.783 192.375V179.284H128.726V181.261H128.862C129.101 180.613 129.533 180.088 130.158 179.684C130.783 179.281 131.487 179.079 132.271 179.079C132.419 179.079 132.604 179.082 132.825 179.088C133.047 179.093 133.214 179.102 133.328 179.113V181.159C133.26 181.142 133.104 181.116 132.859 181.082C132.621 181.042 132.368 181.022 132.101 181.022C131.464 181.022 130.896 181.156 130.396 181.423C129.902 181.684 129.51 182.048 129.22 182.514C128.936 182.974 128.794 183.5 128.794 184.09V192.375H126.783ZM136.765 192.375V179.284H138.777V192.375H136.765ZM137.788 177.102C137.396 177.102 137.058 176.968 136.774 176.701C136.495 176.434 136.356 176.113 136.356 175.738C136.356 175.363 136.495 175.042 136.774 174.775C137.058 174.508 137.396 174.375 137.788 174.375C138.18 174.375 138.515 174.508 138.794 174.775C139.078 175.042 139.22 175.363 139.22 175.738C139.22 176.113 139.078 176.434 138.794 176.701C138.515 176.968 138.18 177.102 137.788 177.102ZM148.798 197.556C147.826 197.556 146.991 197.431 146.292 197.181C145.593 196.937 145.011 196.613 144.545 196.21C144.085 195.812 143.718 195.386 143.445 194.931L145.048 193.806C145.23 194.045 145.46 194.318 145.738 194.625C146.016 194.937 146.397 195.207 146.88 195.434C147.369 195.667 148.008 195.784 148.798 195.784C149.855 195.784 150.727 195.528 151.414 195.017C152.102 194.505 152.445 193.704 152.445 192.613V189.954H152.275C152.127 190.193 151.917 190.488 151.644 190.84C151.377 191.187 150.991 191.497 150.485 191.769C149.985 192.036 149.309 192.17 148.457 192.17C147.4 192.17 146.451 191.92 145.61 191.42C144.775 190.92 144.113 190.193 143.624 189.238C143.141 188.284 142.9 187.125 142.9 185.761C142.9 184.42 143.136 183.252 143.607 182.258C144.079 181.258 144.735 180.485 145.576 179.94C146.417 179.389 147.389 179.113 148.491 179.113C149.343 179.113 150.019 179.255 150.519 179.539C151.025 179.818 151.411 180.136 151.678 180.494C151.951 180.846 152.161 181.136 152.309 181.363H152.514V179.284H154.457V192.75C154.457 193.875 154.201 194.789 153.69 195.494C153.184 196.204 152.502 196.724 151.644 197.053C150.792 197.389 149.843 197.556 148.798 197.556ZM148.73 190.363C149.536 190.363 150.218 190.178 150.775 189.809C151.332 189.44 151.755 188.909 152.045 188.215C152.335 187.522 152.48 186.693 152.48 185.727C152.48 184.784 152.337 183.951 152.053 183.23C151.769 182.508 151.349 181.943 150.792 181.534C150.235 181.125 149.548 180.92 148.73 180.92C147.877 180.92 147.167 181.136 146.599 181.568C146.036 182 145.613 182.579 145.329 183.306C145.051 184.034 144.911 184.84 144.911 185.727C144.911 186.636 145.053 187.44 145.337 188.139C145.627 188.832 146.053 189.377 146.616 189.775C147.184 190.167 147.889 190.363 148.73 190.363ZM161.203 184.5V192.375H159.192V174.92H161.203V181.329H161.373C161.68 180.653 162.141 180.116 162.754 179.718C163.373 179.315 164.197 179.113 165.226 179.113C166.118 179.113 166.899 179.292 167.569 179.65C168.24 180.002 168.76 180.545 169.129 181.278C169.504 182.005 169.692 182.931 169.692 184.056V192.375H167.68V184.193C167.68 183.153 167.41 182.349 166.871 181.781C166.337 181.207 165.595 180.92 164.646 180.92C163.987 180.92 163.396 181.059 162.873 181.338C162.356 181.616 161.947 182.022 161.646 182.556C161.351 183.09 161.203 183.738 161.203 184.5ZM180.118 179.284V180.988H173.333V179.284H180.118ZM175.311 176.147H177.322V188.625C177.322 189.193 177.404 189.619 177.569 189.903C177.74 190.181 177.956 190.369 178.217 190.465C178.484 190.556 178.765 190.602 179.061 190.602C179.282 190.602 179.464 190.59 179.606 190.568C179.748 190.539 179.862 190.517 179.947 190.5L180.356 192.306C180.22 192.357 180.029 192.409 179.785 192.46C179.541 192.517 179.231 192.545 178.856 192.545C178.288 192.545 177.731 192.423 177.186 192.178C176.646 191.934 176.197 191.562 175.839 191.062C175.487 190.562 175.311 189.931 175.311 189.17V176.147ZM193.235 182.215L191.428 182.727C191.314 182.426 191.146 182.133 190.925 181.849C190.709 181.559 190.413 181.321 190.038 181.133C189.663 180.946 189.183 180.852 188.598 180.852C187.797 180.852 187.129 181.036 186.595 181.406C186.067 181.769 185.803 182.232 185.803 182.795C185.803 183.295 185.985 183.69 186.348 183.98C186.712 184.269 187.28 184.511 188.053 184.704L189.996 185.181C191.166 185.465 192.038 185.9 192.612 186.485C193.186 187.065 193.473 187.812 193.473 188.727C193.473 189.477 193.257 190.147 192.825 190.738C192.399 191.329 191.803 191.795 191.036 192.136C190.269 192.477 189.377 192.647 188.36 192.647C187.024 192.647 185.919 192.357 185.044 191.778C184.169 191.198 183.615 190.352 183.382 189.238L185.291 188.761C185.473 189.465 185.817 189.994 186.323 190.346C186.834 190.698 187.502 190.875 188.325 190.875C189.263 190.875 190.007 190.676 190.558 190.278C191.115 189.875 191.394 189.392 191.394 188.829C191.394 188.375 191.235 187.994 190.916 187.687C190.598 187.375 190.11 187.142 189.45 186.988L187.269 186.477C186.07 186.193 185.189 185.752 184.627 185.156C184.07 184.553 183.791 183.801 183.791 182.897C183.791 182.159 183.999 181.505 184.413 180.937C184.834 180.369 185.405 179.923 186.127 179.599C186.854 179.275 187.678 179.113 188.598 179.113C189.894 179.113 190.911 179.397 191.649 179.965C192.394 180.534 192.922 181.284 193.235 182.215ZM205.357 192.375V179.284H207.3V181.261H207.436C207.675 180.613 208.107 180.088 208.732 179.684C209.357 179.281 210.061 179.079 210.846 179.079C210.993 179.079 211.178 179.082 211.4 179.088C211.621 179.093 211.789 179.102 211.902 179.113V181.159C211.834 181.142 211.678 181.116 211.434 181.082C211.195 181.042 210.942 181.022 210.675 181.022C210.039 181.022 209.471 181.156 208.971 181.423C208.476 181.684 208.084 182.048 207.794 182.514C207.51 182.974 207.368 183.5 207.368 184.09V192.375H205.357ZM220.43 192.647C219.168 192.647 218.08 192.369 217.166 191.812C216.257 191.25 215.555 190.465 215.061 189.46C214.572 188.448 214.328 187.272 214.328 185.931C214.328 184.59 214.572 183.409 215.061 182.386C215.555 181.357 216.242 180.556 217.123 179.982C218.009 179.403 219.043 179.113 220.225 179.113C220.907 179.113 221.58 179.227 222.245 179.454C222.91 179.681 223.515 180.051 224.061 180.562C224.606 181.068 225.041 181.738 225.365 182.573C225.688 183.409 225.85 184.437 225.85 185.659V186.511H215.759V184.772H223.805C223.805 184.034 223.657 183.375 223.362 182.795C223.072 182.215 222.657 181.758 222.117 181.423C221.583 181.088 220.953 180.92 220.225 180.92C219.424 180.92 218.731 181.119 218.146 181.517C217.566 181.909 217.12 182.42 216.808 183.051C216.495 183.681 216.339 184.357 216.339 185.079V186.238C216.339 187.227 216.509 188.065 216.85 188.752C217.197 189.434 217.677 189.954 218.291 190.312C218.904 190.664 219.617 190.84 220.43 190.84C220.958 190.84 221.436 190.767 221.862 190.619C222.293 190.465 222.666 190.238 222.978 189.937C223.291 189.63 223.532 189.25 223.703 188.795L225.646 189.34C225.441 190 225.097 190.579 224.615 191.079C224.132 191.573 223.535 191.96 222.825 192.238C222.115 192.511 221.316 192.647 220.43 192.647ZM239.236 182.215L237.429 182.727C237.315 182.426 237.148 182.133 236.926 181.849C236.71 181.559 236.415 181.321 236.04 181.133C235.665 180.946 235.185 180.852 234.599 180.852C233.798 180.852 233.131 181.036 232.597 181.406C232.068 181.769 231.804 182.232 231.804 182.795C231.804 183.295 231.986 183.69 232.349 183.98C232.713 184.269 233.281 184.511 234.054 184.704L235.997 185.181C237.168 185.465 238.04 185.9 238.614 186.485C239.187 187.065 239.474 187.812 239.474 188.727C239.474 189.477 239.258 190.147 238.827 190.738C238.4 191.329 237.804 191.795 237.037 192.136C236.27 192.477 235.378 192.647 234.361 192.647C233.025 192.647 231.92 192.357 231.045 191.778C230.17 191.198 229.616 190.352 229.383 189.238L231.293 188.761C231.474 189.465 231.818 189.994 232.324 190.346C232.835 190.698 233.503 190.875 234.327 190.875C235.264 190.875 236.008 190.676 236.56 190.278C237.116 189.875 237.395 189.392 237.395 188.829C237.395 188.375 237.236 187.994 236.918 187.687C236.599 187.375 236.111 187.142 235.452 186.988L233.27 186.477C232.071 186.193 231.19 185.752 230.628 185.156C230.071 184.553 229.793 183.801 229.793 182.897C229.793 182.159 230 181.505 230.415 180.937C230.835 180.369 231.406 179.923 232.128 179.599C232.855 179.275 233.679 179.113 234.599 179.113C235.895 179.113 236.912 179.397 237.65 179.965C238.395 180.534 238.923 181.284 239.236 182.215ZM249.044 192.647C247.782 192.647 246.694 192.369 245.78 191.812C244.87 191.25 244.169 190.465 243.674 189.46C243.186 188.448 242.941 187.272 242.941 185.931C242.941 184.59 243.186 183.409 243.674 182.386C244.169 181.357 244.856 180.556 245.737 179.982C246.623 179.403 247.657 179.113 248.839 179.113C249.521 179.113 250.194 179.227 250.859 179.454C251.524 179.681 252.129 180.051 252.674 180.562C253.22 181.068 253.655 181.738 253.978 182.573C254.302 183.409 254.464 184.437 254.464 185.659V186.511H244.373V184.772H252.419C252.419 184.034 252.271 183.375 251.976 182.795C251.686 182.215 251.271 181.758 250.731 181.423C250.197 181.088 249.566 180.92 248.839 180.92C248.038 180.92 247.345 181.119 246.76 181.517C246.18 181.909 245.734 182.42 245.422 183.051C245.109 183.681 244.953 184.357 244.953 185.079V186.238C244.953 187.227 245.123 188.065 245.464 188.752C245.811 189.434 246.291 189.954 246.905 190.312C247.518 190.664 248.231 190.84 249.044 190.84C249.572 190.84 250.049 190.767 250.476 190.619C250.907 190.465 251.28 190.238 251.592 189.937C251.905 189.63 252.146 189.25 252.316 188.795L254.26 189.34C254.055 190 253.711 190.579 253.228 191.079C252.745 191.573 252.149 191.96 251.439 192.238C250.728 192.511 249.93 192.647 249.044 192.647ZM258.577 192.375V179.284H260.52V181.261H260.656C260.895 180.613 261.327 180.088 261.952 179.684C262.577 179.281 263.281 179.079 264.066 179.079C264.213 179.079 264.398 179.082 264.62 179.088C264.841 179.093 265.009 179.102 265.122 179.113V181.159C265.054 181.142 264.898 181.116 264.654 181.082C264.415 181.042 264.162 181.022 263.895 181.022C263.259 181.022 262.691 181.156 262.191 181.423C261.696 181.684 261.304 182.048 261.014 182.514C260.73 182.974 260.588 183.5 260.588 184.09V192.375H258.577ZM279.663 179.284L274.822 192.375H272.776L267.935 179.284H270.117L273.731 189.715H273.867L277.481 179.284H279.663ZM288.39 192.647C287.129 192.647 286.041 192.369 285.126 191.812C284.217 191.25 283.515 190.465 283.021 189.46C282.532 188.448 282.288 187.272 282.288 185.931C282.288 184.59 282.532 183.409 283.021 182.386C283.515 181.357 284.203 180.556 285.084 179.982C285.97 179.403 287.004 179.113 288.186 179.113C288.868 179.113 289.541 179.227 290.206 179.454C290.87 179.681 291.476 180.051 292.021 180.562C292.566 181.068 293.001 181.738 293.325 182.573C293.649 183.409 293.811 184.437 293.811 185.659V186.511H283.72V184.772H291.765C291.765 184.034 291.618 183.375 291.322 182.795C291.032 182.215 290.618 181.758 290.078 181.423C289.544 181.088 288.913 180.92 288.186 180.92C287.385 180.92 286.691 181.119 286.106 181.517C285.527 181.909 285.081 182.42 284.768 183.051C284.456 183.681 284.299 184.357 284.299 185.079V186.238C284.299 187.227 284.47 188.065 284.811 188.752C285.157 189.434 285.637 189.954 286.251 190.312C286.865 190.664 287.578 190.84 288.39 190.84C288.919 190.84 289.396 190.767 289.822 190.619C290.254 190.465 290.626 190.238 290.939 189.937C291.251 189.63 291.493 189.25 291.663 188.795L293.606 189.34C293.402 190 293.058 190.579 292.575 191.079C292.092 191.573 291.495 191.96 290.785 192.238C290.075 192.511 289.277 192.647 288.39 192.647ZM302.867 192.647C301.776 192.647 300.813 192.372 299.977 191.821C299.142 191.264 298.489 190.48 298.017 189.468C297.546 188.451 297.31 187.25 297.31 185.863C297.31 184.488 297.546 183.295 298.017 182.284C298.489 181.272 299.145 180.491 299.986 179.94C300.827 179.389 301.798 179.113 302.901 179.113C303.753 179.113 304.426 179.255 304.921 179.539C305.421 179.818 305.801 180.136 306.063 180.494C306.33 180.846 306.537 181.136 306.685 181.363H306.855V174.92H308.867V192.375H306.923V190.363H306.685C306.537 190.602 306.327 190.903 306.054 191.267C305.781 191.625 305.392 191.946 304.887 192.23C304.381 192.508 303.708 192.647 302.867 192.647ZM303.139 190.84C303.946 190.84 304.628 190.63 305.185 190.21C305.742 189.784 306.165 189.196 306.455 188.446C306.745 187.69 306.889 186.818 306.889 185.829C306.889 184.852 306.747 183.997 306.463 183.264C306.179 182.525 305.759 181.951 305.202 181.542C304.645 181.127 303.958 180.92 303.139 180.92C302.287 180.92 301.577 181.139 301.009 181.576C300.446 182.008 300.023 182.596 299.739 183.34C299.46 184.079 299.321 184.909 299.321 185.829C299.321 186.761 299.463 187.607 299.747 188.369C300.037 189.125 300.463 189.727 301.026 190.176C301.594 190.619 302.298 190.84 303.139 190.84Z" fill="white"/>
</svg>
