<svg width="194" height="109" viewBox="0 0 194 109" fill="none" xmlns="http://www.w3.org/2000/svg">
<mask id="path-1-inside-1_3766_94" fill="white">
<path d="M62.475 133.018C47.675 133.018 35.7417 130.485 26.675 125.418C17.7417 120.218 11.2083 112.685 7.075 102.818C2.94167 92.9518 0.875 80.8851 0.875 66.6184C0.875 52.3518 2.94167 40.2851 7.075 30.4184C11.2083 20.5518 17.7417 13.0851 26.675 8.01843C35.7417 2.81843 47.675 0.218424 62.475 0.218424C84.6083 0.218424 100.408 5.95176 109.875 17.4184C119.342 28.7518 124.075 45.1518 124.075 66.6184C124.075 87.9518 119.342 104.352 109.875 115.818C100.408 127.285 84.6083 133.018 62.475 133.018ZM62.475 101.018C71.1417 101.018 77.1417 98.1518 80.475 92.4184C83.9417 86.5518 85.675 77.9518 85.675 66.6184C85.675 55.1518 83.9417 46.5518 80.475 40.8184C77.1417 35.0851 71.1417 32.2184 62.475 32.2184C53.8083 32.2184 47.7417 35.0851 44.275 40.8184C40.9417 46.5518 39.275 55.1518 39.275 66.6184C39.275 77.9518 40.9417 86.5518 44.275 92.4184C47.7417 98.1518 53.8083 101.018 62.475 101.018ZM155.478 131.018V37.0184L134.078 40.2184V8.81843L193.078 0.218424V131.018H155.478Z"/>
</mask>
<path d="M26.675 125.418L23.1535 131.468L23.2066 131.499L23.2603 131.529L26.675 125.418ZM7.075 102.818L0.618637 105.523L7.075 102.818ZM7.075 30.4184L0.618637 27.7137L7.075 30.4184ZM26.675 8.01843L30.1284 14.1073L30.143 14.099L30.1576 14.0906L26.675 8.01843ZM109.875 17.4184L104.477 21.875L104.49 21.8905L104.503 21.9059L109.875 17.4184ZM109.875 115.818L115.273 120.275H115.273L109.875 115.818ZM80.475 92.4184L74.4485 88.8573L74.4359 88.8787L74.4234 88.9001L80.475 92.4184ZM80.475 40.8184L74.4234 44.3368L74.4537 44.3888L74.4849 44.4404L80.475 40.8184ZM44.275 40.8184L38.2849 37.1965L38.2537 37.248L38.2235 37.3001L44.275 40.8184ZM44.275 92.4184L38.1888 95.8765L38.2357 95.9591L38.2849 96.0404L44.275 92.4184ZM62.475 126.018C48.3923 126.018 37.7625 123.596 30.0898 119.308L23.2603 131.529C33.7208 137.375 46.9577 140.018 62.475 140.018V126.018ZM30.1965 119.369C22.6278 114.963 17.0984 108.629 13.5314 100.114L0.618637 105.523C5.3183 116.742 12.8556 125.474 23.1535 131.468L30.1965 119.369ZM13.5314 100.114C9.85498 91.3379 7.875 80.2494 7.875 66.6184H-6.125C-6.125 81.5208 -3.97164 94.5657 0.618637 105.523L13.5314 100.114ZM7.875 66.6184C7.875 52.9874 9.85498 41.899 13.5314 33.1231L0.618637 27.7137C-3.97164 38.6712 -6.125 51.7161 -6.125 66.6184H7.875ZM13.5314 33.1231C17.0927 24.6219 22.6022 18.3759 30.1284 14.1073L23.2216 1.92957C12.8812 7.7943 5.32397 16.4817 0.618637 27.7137L13.5314 33.1231ZM30.1576 14.0906C37.8134 9.69981 48.4163 7.21842 62.475 7.21842V-6.78158C46.9337 -6.78158 33.67 -4.06296 23.1924 1.94623L30.1576 14.0906ZM62.475 7.21842C83.563 7.21842 96.8858 12.68 104.477 21.875L115.273 12.9619C103.931 -0.776521 85.6537 -6.78158 62.475 -6.78158V7.21842ZM104.503 21.9059C112.531 31.5175 117.075 46.0664 117.075 66.6184H131.075C131.075 44.2371 126.152 25.986 115.247 12.9309L104.503 21.9059ZM117.075 66.6184C117.075 87.0171 112.54 101.596 104.477 111.362L115.273 120.275C126.144 107.108 131.075 88.8864 131.075 66.6184H117.075ZM104.477 111.362C96.8858 120.557 83.563 126.018 62.475 126.018V140.018C85.6537 140.018 103.931 134.013 115.273 120.275L104.477 111.362ZM62.475 108.018C72.7588 108.018 81.5545 104.489 86.5266 95.9368L74.4234 88.9001C72.7288 91.8149 69.5245 94.0184 62.475 94.0184V108.018ZM86.5015 95.9795C90.8982 88.5389 92.675 78.4657 92.675 66.6184H78.675C78.675 77.4379 76.9851 84.5646 74.4485 88.8573L86.5015 95.9795ZM92.675 66.6184C92.675 54.6746 90.9103 44.5482 86.4651 37.1965L74.4849 44.4404C76.973 48.5554 78.675 55.629 78.675 66.6184H92.675ZM86.5266 37.3001C81.5545 28.7482 72.7588 25.2184 62.475 25.2184V39.2184C69.5245 39.2184 72.7288 41.422 74.4234 44.3368L86.5266 37.3001ZM62.475 25.2184C52.1787 25.2184 43.393 28.7484 38.2849 37.1965L50.2651 44.4404C52.0903 41.4218 55.438 39.2184 62.475 39.2184V25.2184ZM38.2235 37.3001C33.9665 44.6221 32.275 54.7027 32.275 66.6184H46.275C46.275 55.6008 47.9169 48.4815 50.3266 44.3368L38.2235 37.3001ZM32.275 66.6184C32.275 78.4368 33.978 88.4655 38.1888 95.8765L50.3612 88.9604C47.9053 84.638 46.275 77.4667 46.275 66.6184H32.275ZM38.2849 96.0404C43.393 104.488 52.1787 108.018 62.475 108.018V94.0184C55.438 94.0184 52.0903 91.8151 50.2651 88.7965L38.2849 96.0404ZM155.478 131.018H148.478V138.018H155.478V131.018ZM155.478 37.0184H162.478V28.8939L154.443 30.0954L155.478 37.0184ZM134.078 40.2184H127.078V48.343L135.113 47.1415L134.078 40.2184ZM134.078 8.81843L133.068 1.89163L127.078 2.7648V8.81843H134.078ZM193.078 0.218424H200.078V-7.87589L192.068 -6.70838L193.078 0.218424ZM193.078 131.018V138.018H200.078V131.018H193.078ZM162.478 131.018V37.0184H148.478V131.018H162.478ZM154.443 30.0954L133.043 33.2954L135.113 47.1415L156.513 43.9415L154.443 30.0954ZM141.078 40.2184V8.81843H127.078V40.2184H141.078ZM135.088 15.7452L194.088 7.14522L192.068 -6.70838L133.068 1.89163L135.088 15.7452ZM186.078 0.218424V131.018H200.078V0.218424H186.078ZM193.078 124.018H155.478V138.018H193.078V124.018Z" fill="white" fill-opacity="0.4" mask="url(#path-1-inside-1_3766_94)"/>
</svg>
