<svg width="229" height="109" viewBox="0 0 229 109" fill="none" xmlns="http://www.w3.org/2000/svg">
<mask id="path-1-inside-1_3766_159" fill="white">
<path d="M62.2523 133.018C47.4523 133.018 35.519 130.485 26.4523 125.418C17.519 120.218 10.9857 112.685 6.85234 102.818C2.71901 92.9518 0.652344 80.8851 0.652344 66.6184C0.652344 52.3518 2.71901 40.2851 6.85234 30.4184C10.9857 20.5518 17.519 13.0851 26.4523 8.01843C35.519 2.81843 47.4523 0.218424 62.2523 0.218424C84.3857 0.218424 100.186 5.95176 109.652 17.4184C119.119 28.7518 123.852 45.1518 123.852 66.6184C123.852 87.9518 119.119 104.352 109.652 115.818C100.186 127.285 84.3857 133.018 62.2523 133.018ZM62.2523 101.018C70.919 101.018 76.919 98.1518 80.2523 92.4184C83.719 86.5518 85.4523 77.9518 85.4523 66.6184C85.4523 55.1518 83.719 46.5518 80.2523 40.8184C76.919 35.0851 70.919 32.2184 62.2523 32.2184C53.5857 32.2184 47.519 35.0851 44.0523 40.8184C40.719 46.5518 39.0523 55.1518 39.0523 66.6184C39.0523 77.9518 40.719 86.5518 44.0523 92.4184C47.519 98.1518 53.5857 101.018 62.2523 101.018ZM133.855 131.018V113.818C137.589 106.752 142.122 100.418 147.455 94.8184C152.789 89.2184 158.722 83.4851 165.255 77.6184C170.722 72.6851 175.122 68.6184 178.455 65.4184C181.922 62.2184 184.455 59.2184 186.055 56.4184C187.789 53.4851 188.655 50.1518 188.655 46.4184C188.655 36.9518 182.455 32.2184 170.055 32.2184C164.322 32.2184 158.722 32.8851 153.255 34.2184C147.922 35.5518 142.855 37.2184 138.055 39.2184V7.21843C143.522 5.08509 149.922 3.41842 157.255 2.21842C164.589 0.88509 171.989 0.218424 179.455 0.218424C195.455 0.218424 207.389 4.01843 215.255 11.6184C223.122 19.0851 227.055 29.1518 227.055 41.8184C227.055 47.8184 226.322 53.0184 224.855 57.4184C223.522 61.6851 221.389 65.6184 218.455 69.2184C215.522 72.8184 211.722 76.6851 207.055 80.8184C202.922 84.4184 198.855 88.0184 194.855 91.6184C190.855 95.2184 187.655 98.7518 185.255 102.218H228.255V131.018H133.855Z"/>
</mask>
<path d="M26.4523 125.418L22.9309 131.468L22.984 131.499L23.0376 131.529L26.4523 125.418ZM6.85234 102.818L0.39598 105.523L6.85234 102.818ZM6.85234 30.4184L0.39598 27.7137L6.85234 30.4184ZM26.4523 8.01843L29.9057 14.1073L29.9203 14.099L29.9349 14.0906L26.4523 8.01843ZM109.652 17.4184L104.254 21.875L104.267 21.8905L104.28 21.9059L109.652 17.4184ZM109.652 115.818L115.05 120.275H115.05L109.652 115.818ZM80.2523 92.4184L74.2259 88.8573L74.2132 88.8787L74.2008 88.9001L80.2523 92.4184ZM80.2523 40.8184L74.2008 44.3368L74.2311 44.3888L74.2622 44.4404L80.2523 40.8184ZM44.0523 40.8184L38.0622 37.1965L38.0311 37.248L38.0008 37.3001L44.0523 40.8184ZM44.0523 92.4184L37.9662 95.8765L38.0131 95.9591L38.0622 96.0404L44.0523 92.4184ZM62.2523 126.018C48.1696 126.018 37.5399 123.596 29.8671 119.308L23.0376 131.529C33.4981 137.375 46.7351 140.018 62.2523 140.018V126.018ZM29.9738 119.369C22.4051 114.963 16.8757 108.629 13.3087 100.114L0.39598 105.523C5.09565 116.742 12.6329 125.474 22.9309 131.468L29.9738 119.369ZM13.3087 100.114C9.63232 91.3379 7.65234 80.2494 7.65234 66.6184H-6.34766C-6.34766 81.5208 -4.1943 94.5657 0.39598 105.523L13.3087 100.114ZM7.65234 66.6184C7.65234 52.9874 9.63232 41.899 13.3087 33.1231L0.39598 27.7137C-4.1943 38.6712 -6.34766 51.7161 -6.34766 66.6184H7.65234ZM13.3087 33.1231C16.87 24.6219 22.3795 18.3759 29.9057 14.1073L22.999 1.92957C12.6585 7.7943 5.10131 16.4817 0.39598 27.7137L13.3087 33.1231ZM29.9349 14.0906C37.5907 9.69981 48.1936 7.21842 62.2523 7.21842V-6.78158C46.7111 -6.78158 33.4473 -4.06296 22.9698 1.94623L29.9349 14.0906ZM62.2523 7.21842C83.3403 7.21842 96.6631 12.68 104.254 21.875L115.05 12.9619C103.708 -0.776521 85.4311 -6.78158 62.2523 -6.78158V7.21842ZM104.28 21.9059C112.309 31.5175 116.852 46.0664 116.852 66.6184H130.852C130.852 44.2371 125.93 25.986 115.025 12.9309L104.28 21.9059ZM116.852 66.6184C116.852 87.0171 112.317 101.596 104.254 111.362L115.05 120.275C125.921 107.108 130.852 88.8864 130.852 66.6184H116.852ZM104.254 111.362C96.6631 120.557 83.3403 126.018 62.2523 126.018V140.018C85.4311 140.018 103.708 134.013 115.05 120.275L104.254 111.362ZM62.2523 108.018C72.5362 108.018 81.3319 104.489 86.3039 95.9368L74.2008 88.9001C72.5062 91.8149 69.3018 94.0184 62.2523 94.0184V108.018ZM86.2788 95.9795C90.6756 88.5389 92.4523 78.4657 92.4523 66.6184H78.4523C78.4523 77.4379 76.7625 84.5646 74.2259 88.8573L86.2788 95.9795ZM92.4523 66.6184C92.4523 54.6746 90.6877 44.5482 86.2425 37.1965L74.2622 44.4404C76.7504 48.5554 78.4523 55.629 78.4523 66.6184H92.4523ZM86.3039 37.3001C81.3319 28.7482 72.5362 25.2184 62.2523 25.2184V39.2184C69.3018 39.2184 72.5062 41.422 74.2008 44.3368L86.3039 37.3001ZM62.2523 25.2184C51.956 25.2184 43.1704 28.7484 38.0622 37.1965L50.0425 44.4404C51.8677 41.4218 55.2153 39.2184 62.2523 39.2184V25.2184ZM38.0008 37.3001C33.7438 44.6221 32.0523 54.7027 32.0523 66.6184H46.0523C46.0523 55.6008 47.6942 48.4815 50.1039 44.3368L38.0008 37.3001ZM32.0523 66.6184C32.0523 78.4368 33.7554 88.4655 37.9662 95.8765L50.1385 88.9604C47.6826 84.638 46.0523 77.4667 46.0523 66.6184H32.0523ZM38.0622 96.0404C43.1704 104.488 51.956 108.018 62.2523 108.018V94.0184C55.2153 94.0184 51.8677 91.8151 50.0425 88.7965L38.0622 96.0404ZM133.855 131.018H126.855V138.018H133.855V131.018ZM133.855 113.818L127.666 110.549L126.855 112.083V113.818H133.855ZM147.455 94.8184L142.387 89.9908L147.455 94.8184ZM165.255 77.6184L169.932 82.8268L169.939 82.821L169.945 82.8152L165.255 77.6184ZM178.455 65.4184L173.708 60.2748L173.657 60.3213L173.608 60.3687L178.455 65.4184ZM186.055 56.4184L180.029 52.8573L180.003 52.9012L179.978 52.9455L186.055 56.4184ZM153.255 34.2184L151.597 27.4178L151.577 27.4226L151.558 27.4274L153.255 34.2184ZM138.055 39.2184H131.055V49.7184L140.748 45.68L138.055 39.2184ZM138.055 7.21843L135.511 0.697387L131.055 2.436V7.21843H138.055ZM157.255 2.21842L158.386 9.12654L158.447 9.11657L158.508 9.10551L157.255 2.21842ZM215.255 11.6184L210.392 16.6528L210.414 16.6743L210.436 16.6956L215.255 11.6184ZM224.855 57.4184L218.215 55.2048L218.194 55.2675L218.174 55.3305L224.855 57.4184ZM218.455 69.2184L213.029 64.7967V64.7967L218.455 69.2184ZM207.055 80.8184L211.653 86.097L211.675 86.0779L211.697 86.0585L207.055 80.8184ZM194.855 91.6184L190.173 86.4154V86.4154L194.855 91.6184ZM185.255 102.218L179.5 98.234L171.895 109.218H185.255V102.218ZM228.255 102.218H235.255V95.2184H228.255V102.218ZM228.255 131.018V138.018H235.255V131.018H228.255ZM140.855 131.018V113.818H126.855V131.018H140.855ZM140.045 117.088C143.488 110.571 147.649 104.765 152.524 99.646L142.387 89.9908C136.595 96.0716 131.69 102.933 127.666 110.549L140.045 117.088ZM152.524 99.646C157.717 94.1942 163.517 88.5876 169.932 82.8268L160.579 72.4101C153.927 78.3826 147.861 84.2426 142.387 89.9908L152.524 99.646ZM169.945 82.8152C175.438 77.8582 179.897 73.7382 183.303 70.4681L173.608 60.3687C170.347 63.4987 166.006 67.5119 160.566 72.4217L169.945 82.8152ZM183.203 70.5621C186.976 67.0796 190.055 63.5284 192.133 59.8914L179.978 52.9455C178.856 54.9084 176.868 57.3572 173.708 60.2748L183.203 70.5621ZM192.082 59.9795C194.513 55.866 195.655 51.281 195.655 46.4184H181.655C181.655 49.0226 181.065 51.1042 180.029 52.8573L192.082 59.9795ZM195.655 46.4184C195.655 40.0233 193.463 34.1822 188.253 30.2045C183.4 26.4996 176.948 25.2184 170.055 25.2184V39.2184C175.563 39.2184 178.411 40.3039 179.758 41.3323C180.748 42.088 181.655 43.3469 181.655 46.4184H195.655ZM170.055 25.2184C163.774 25.2184 157.617 25.9495 151.597 27.4178L154.914 41.0191C159.828 39.8207 164.87 39.2184 170.055 39.2184V25.2184ZM151.558 27.4274C145.904 28.8408 140.504 30.615 135.363 32.7569L140.748 45.68C145.207 43.8219 149.94 42.2627 154.953 41.0094L151.558 27.4274ZM145.055 39.2184V7.21843H131.055V39.2184H145.055ZM140.6 13.7395C145.508 11.8241 151.415 10.2672 158.386 9.12654L156.125 -4.6897C148.429 -3.4304 141.536 -1.65388 135.511 0.697387L140.6 13.7395ZM158.508 9.10551C165.427 7.84743 172.408 7.21842 179.455 7.21842V-6.78158C171.57 -6.78158 163.751 -6.07725 156.003 -4.66867L158.508 9.10551ZM179.455 7.21842C194.475 7.21842 204.327 10.7936 210.392 16.6528L220.119 6.58409C210.451 -2.75677 196.436 -6.78158 179.455 -6.78158V7.21842ZM210.436 16.6956C216.675 22.6171 220.055 30.7208 220.055 41.8184H234.055C234.055 27.5827 229.569 15.5531 220.074 6.54129L210.436 16.6956ZM220.055 41.8184C220.055 47.275 219.385 51.693 218.215 55.2048L231.496 59.632C233.259 54.3439 234.055 48.3618 234.055 41.8184H220.055ZM218.174 55.3305C217.117 58.7135 215.421 61.8604 213.029 64.7967L223.882 73.6401C227.356 69.3765 229.927 64.6567 231.537 59.5063L218.174 55.3305ZM213.029 64.7967C210.4 68.0232 206.887 71.6169 202.414 75.5783L211.697 86.0585C216.558 81.7533 220.644 77.6137 223.882 73.6401L213.029 64.7967ZM202.458 75.5399C198.297 79.1643 194.201 82.7895 190.173 86.4154L199.538 96.8215C203.509 93.2474 207.548 89.6725 211.653 86.097L202.458 75.5399ZM190.173 86.4154C185.874 90.2841 182.28 94.218 179.5 98.234L191.011 106.203C193.031 103.285 195.837 100.153 199.538 96.8215L190.173 86.4154ZM185.255 109.218H228.255V95.2184H185.255V109.218ZM221.255 102.218V131.018H235.255V102.218H221.255ZM228.255 124.018H133.855V138.018H228.255V124.018Z" fill="white" fill-opacity="0.4" mask="url(#path-1-inside-1_3766_159)"/>
</svg>
