<svg width="231" height="109" viewBox="0 0 231 109" fill="none" xmlns="http://www.w3.org/2000/svg">
<mask id="path-1-inside-1_3766_108" fill="white">
<path d="M62.5805 133.018C47.7805 133.018 35.8471 130.485 26.7805 125.418C17.8471 120.218 11.3138 112.685 7.18047 102.818C3.04714 92.9518 0.980469 80.8851 0.980469 66.6184C0.980469 52.3518 3.04714 40.2851 7.18047 30.4184C11.3138 20.5518 17.8471 13.0851 26.7805 8.01843C35.8471 2.81843 47.7805 0.218424 62.5805 0.218424C84.7138 0.218424 100.514 5.95176 109.98 17.4184C119.447 28.7518 124.18 45.1518 124.18 66.6184C124.18 87.9518 119.447 104.352 109.98 115.818C100.514 127.285 84.7138 133.018 62.5805 133.018ZM62.5805 101.018C71.2471 101.018 77.2471 98.1518 80.5805 92.4184C84.0471 86.5518 85.7805 77.9518 85.7805 66.6184C85.7805 55.1518 84.0471 46.5518 80.5805 40.8184C77.2471 35.0851 71.2471 32.2184 62.5805 32.2184C53.9138 32.2184 47.8471 35.0851 44.3805 40.8184C41.0471 46.5518 39.3805 55.1518 39.3805 66.6184C39.3805 77.9518 41.0471 86.5518 44.3805 92.4184C47.8471 98.1518 53.9138 101.018 62.5805 101.018ZM176.384 133.018C172.65 133.018 168.117 132.685 162.784 132.018C157.45 131.485 152.184 130.685 146.984 129.618C141.917 128.552 137.65 127.352 134.184 126.018V96.0184C139.917 98.5518 146.05 100.418 152.584 101.618C159.117 102.685 165.05 103.218 170.384 103.218C177.85 103.218 183.384 102.285 186.984 100.418C190.717 98.5518 192.584 95.0851 192.584 90.0184C192.584 82.5518 186.717 78.8184 174.984 78.8184H153.184L155.584 53.6184H173.784C179.65 53.6184 183.85 52.6851 186.384 50.8184C188.917 48.9518 190.184 45.9518 190.184 41.8184C190.184 37.9518 188.517 35.0184 185.184 33.0184C181.984 31.0184 176.717 30.0184 169.384 30.0184C163.517 30.0184 157.584 30.6851 151.584 32.0184C145.584 33.3518 140.45 35.0851 136.184 37.2184V7.41843C141.117 5.41843 147.25 3.75176 154.584 2.41843C161.917 0.95176 169.25 0.218424 176.584 0.218424C187.784 0.218424 197.25 1.81842 204.984 5.01842C212.717 8.21843 218.584 12.6184 222.584 18.2184C226.584 23.8184 228.584 30.2184 228.584 37.4184C228.584 43.5518 227.384 49.1518 224.984 54.2184C222.717 59.2851 219.317 63.2851 214.784 66.2184C225.584 70.7518 230.984 79.7518 230.984 93.2184C230.984 102.418 228.584 109.952 223.784 115.818C219.117 121.685 212.65 126.018 204.384 128.818C196.25 131.618 186.917 133.018 176.384 133.018Z"/>
</mask>
<path d="M26.7805 125.418L23.259 131.468L23.3121 131.499L23.3657 131.529L26.7805 125.418ZM7.18047 102.818L0.724105 105.523L7.18047 102.818ZM7.18047 30.4184L0.724105 27.7137L7.18047 30.4184ZM26.7805 8.01843L30.2339 14.1073L30.2485 14.099L30.2631 14.0906L26.7805 8.01843ZM109.98 17.4184L104.582 21.875L104.595 21.8905L104.608 21.9059L109.98 17.4184ZM109.98 115.818L115.379 120.275H115.379L109.98 115.818ZM80.5805 92.4184L74.554 88.8573L74.5414 88.8787L74.5289 88.9001L80.5805 92.4184ZM80.5805 40.8184L74.5289 44.3368L74.5592 44.3888L74.5903 44.4404L80.5805 40.8184ZM44.3805 40.8184L38.3903 37.1965L38.3592 37.248L38.3289 37.3001L44.3805 40.8184ZM44.3805 92.4184L38.2943 95.8765L38.3412 95.9591L38.3903 96.0404L44.3805 92.4184ZM62.5805 126.018C48.4977 126.018 37.868 123.596 30.1952 119.308L23.3657 131.529C33.8263 137.375 47.0632 140.018 62.5805 140.018V126.018ZM30.302 119.369C22.7332 114.963 17.2038 108.629 13.6368 100.114L0.724105 105.523C5.42377 116.742 12.961 125.474 23.259 131.468L30.302 119.369ZM13.6368 100.114C9.96045 91.3379 7.98047 80.2494 7.98047 66.6184H-6.01953C-6.01953 81.5208 -3.86618 94.5657 0.724105 105.523L13.6368 100.114ZM7.98047 66.6184C7.98047 52.9874 9.96045 41.899 13.6368 33.1231L0.724105 27.7137C-3.86618 38.6712 -6.01953 51.7161 -6.01953 66.6184H7.98047ZM13.6368 33.1231C17.1982 24.6219 22.7076 18.3759 30.2339 14.1073L23.3271 1.92957C12.9867 7.7943 5.42944 16.4817 0.724105 27.7137L13.6368 33.1231ZM30.2631 14.0906C37.9188 9.69981 48.5217 7.21842 62.5805 7.21842V-6.78158C47.0392 -6.78158 33.7754 -4.06296 23.2979 1.94623L30.2631 14.0906ZM62.5805 7.21842C83.6684 7.21842 96.9912 12.68 104.582 21.875L115.379 12.9619C104.036 -0.776521 85.7592 -6.78158 62.5805 -6.78158V7.21842ZM104.608 21.9059C112.637 31.5175 117.18 46.0664 117.18 66.6184H131.18C131.18 44.2371 126.258 25.986 115.353 12.9309L104.608 21.9059ZM117.18 66.6184C117.18 87.0171 112.645 101.596 104.582 111.362L115.379 120.275C126.249 107.108 131.18 88.8864 131.18 66.6184H117.18ZM104.582 111.362C96.9912 120.557 83.6684 126.018 62.5805 126.018V140.018C85.7592 140.018 104.036 134.013 115.379 120.275L104.582 111.362ZM62.5805 108.018C72.8643 108.018 81.66 104.489 86.632 95.9368L74.5289 88.9001C72.8343 91.8149 69.63 94.0184 62.5805 94.0184V108.018ZM86.607 95.9795C91.0037 88.5389 92.7805 78.4657 92.7805 66.6184H78.7805C78.7805 77.4379 77.0906 84.5646 74.554 88.8573L86.607 95.9795ZM92.7805 66.6184C92.7805 54.6746 91.0158 44.5482 86.5706 37.1965L74.5903 44.4404C77.0785 48.5554 78.7805 55.629 78.7805 66.6184H92.7805ZM86.632 37.3001C81.66 28.7482 72.8643 25.2184 62.5805 25.2184V39.2184C69.63 39.2184 72.8343 41.422 74.5289 44.3368L86.632 37.3001ZM62.5805 25.2184C52.2842 25.2184 43.4985 28.7484 38.3903 37.1965L50.3706 44.4404C52.1958 41.4218 55.5434 39.2184 62.5805 39.2184V25.2184ZM38.3289 37.3001C34.072 44.6221 32.3805 54.7027 32.3805 66.6184H46.3805C46.3805 55.6008 48.0223 48.4815 50.432 44.3368L38.3289 37.3001ZM32.3805 66.6184C32.3805 78.4368 34.0835 88.4655 38.2943 95.8765L50.4667 88.9604C48.0108 84.638 46.3805 77.4667 46.3805 66.6184H32.3805ZM38.3903 96.0404C43.4985 104.488 52.2842 108.018 62.5805 108.018V94.0184C55.5434 94.0184 52.1958 91.8151 50.3706 88.7965L38.3903 96.0404ZM162.784 132.018L163.652 125.072L163.566 125.062L163.48 125.053L162.784 132.018ZM146.984 129.618L145.542 136.468L145.559 136.472L145.577 136.476L146.984 129.618ZM134.184 126.018H127.184V130.826L131.671 132.552L134.184 126.018ZM134.184 96.0184L137.013 89.6156L127.184 85.2725V96.0184H134.184ZM152.584 101.618L151.319 108.503L151.387 108.516L151.456 108.527L152.584 101.618ZM186.984 100.418L183.853 94.1574L183.807 94.1805L183.761 94.2041L186.984 100.418ZM153.184 78.8184L146.215 78.1548L145.485 85.8184H153.184V78.8184ZM155.584 53.6184V46.6184H149.219L148.615 52.9548L155.584 53.6184ZM185.184 33.0184L181.474 38.9544L181.528 38.9881L181.582 39.0209L185.184 33.0184ZM151.584 32.0184L150.065 25.1851L150.065 25.1851L151.584 32.0184ZM136.184 37.2184H129.184V48.5447L139.314 43.4794L136.184 37.2184ZM136.184 7.41843L133.554 0.931251L129.184 2.7029V7.41843H136.184ZM154.584 2.41843L155.836 9.30552L155.896 9.29454L155.956 9.2825L154.584 2.41843ZM204.984 5.01842L207.66 -1.44969L207.66 -1.4497L204.984 5.01842ZM224.984 54.2184L218.657 51.2218L218.625 51.2905L218.594 51.3599L224.984 54.2184ZM214.784 66.2184L210.981 60.3414L199.852 67.5425L212.074 72.6729L214.784 66.2184ZM223.784 115.818L218.366 111.386L218.335 111.423L218.305 111.461L223.784 115.818ZM204.384 128.818L202.138 122.188L202.121 122.194L202.105 122.2L204.384 128.818ZM176.384 126.018C173.036 126.018 168.811 125.717 163.652 125.072L161.915 138.964C167.423 139.653 172.265 140.018 176.384 140.018V126.018ZM163.48 125.053C158.383 124.543 153.353 123.779 148.39 122.761L145.577 136.476C151.014 137.591 156.518 138.427 162.087 138.984L163.48 125.053ZM148.426 122.769C143.593 121.751 139.71 120.644 136.696 119.485L131.671 132.552C135.591 134.06 140.241 135.352 145.542 136.468L148.426 122.769ZM141.184 126.018V96.0184H127.184V126.018H141.184ZM131.354 102.421C137.618 105.189 144.279 107.21 151.319 108.503L153.848 94.7336C147.821 93.6266 142.216 91.9149 137.013 89.6156L131.354 102.421ZM151.456 108.527C158.277 109.641 164.595 110.218 170.384 110.218V96.2184C165.505 96.2184 159.957 95.7296 153.712 94.7099L151.456 108.527ZM170.384 110.218C178.178 110.218 185.087 109.287 190.206 106.633L183.761 94.2041C181.68 95.2832 177.523 96.2184 170.384 96.2184V110.218ZM190.114 106.679C193.189 105.142 195.688 102.819 197.347 99.7371C198.965 96.7328 199.584 93.3869 199.584 90.0184H185.584C185.584 91.7167 185.269 92.6374 185.02 93.0997C184.813 93.4848 184.512 93.828 183.853 94.1574L190.114 106.679ZM199.584 90.0184C199.584 84.1033 197.066 78.974 191.942 75.7128C187.354 72.7933 181.367 71.8184 174.984 71.8184V85.8184C180.333 85.8184 183.147 86.7103 184.425 87.5241C184.966 87.8678 185.173 88.1568 185.283 88.3665C185.404 88.5976 185.584 89.0786 185.584 90.0184H199.584ZM174.984 71.8184H153.184V85.8184H174.984V71.8184ZM160.152 79.4821L162.552 54.2821L148.615 52.9548L146.215 78.1548L160.152 79.4821ZM155.584 60.6184H173.784V46.6184H155.584V60.6184ZM173.784 60.6184C180.029 60.6184 186.137 59.6955 190.536 56.4538L182.231 45.183C181.564 45.6747 179.271 46.6184 173.784 46.6184V60.6184ZM190.536 56.4538C195.396 52.8727 197.184 47.4132 197.184 41.8184H183.184C183.184 44.4903 182.438 45.0309 182.231 45.183L190.536 56.4538ZM197.184 41.8184C197.184 35.4768 194.213 30.2727 188.785 27.016L181.582 39.0209C182.821 39.7641 183.184 40.4267 183.184 41.8184H197.184ZM188.894 27.0824C183.948 23.9914 176.998 23.0184 169.384 23.0184V37.0184C176.436 37.0184 180.019 38.0455 181.474 38.9544L188.894 27.0824ZM169.384 23.0184C162.982 23.0184 156.54 23.7463 150.065 25.1851L153.102 38.8517C158.627 37.6239 164.051 37.0184 169.384 37.0184V23.0184ZM150.065 25.1851C143.658 26.609 137.954 28.507 133.053 30.9574L139.314 43.4794C142.947 41.6632 147.509 40.0946 153.102 38.8517L150.065 25.1851ZM143.184 37.2184V7.41843H129.184V37.2184H143.184ZM138.814 13.9056C143.166 12.1412 148.802 10.5843 155.836 9.30552L153.331 -4.46866C145.698 -3.08078 139.068 -1.30437 133.554 0.931251L138.814 13.9056ZM155.956 9.2825C162.847 7.90443 169.72 7.21842 176.584 7.21842V-6.78158C168.78 -6.78158 160.987 -6.00091 153.211 -4.44563L155.956 9.2825ZM176.584 7.21842C187.158 7.21842 195.657 8.73468 202.307 11.4865L207.66 -1.4497C198.844 -5.09784 188.409 -6.78158 176.584 -6.78158V7.21842ZM202.307 11.4865C209.092 14.2941 213.799 17.9639 216.887 22.2871L228.28 14.1498C223.368 7.27299 216.342 2.1428 207.66 -1.44969L202.307 11.4865ZM216.887 22.2871C219.999 26.6428 221.584 31.6056 221.584 37.4184H235.584C235.584 28.8312 233.169 20.9941 228.28 14.1498L216.887 22.2871ZM221.584 37.4184C221.584 42.6141 220.573 47.1771 218.657 51.2218L231.31 57.215C234.194 51.1264 235.584 44.4895 235.584 37.4184H221.584ZM218.594 51.3599C216.863 55.2281 214.345 58.1645 210.981 60.3414L218.586 72.0954C224.289 68.4056 228.57 63.3421 231.373 57.077L218.594 51.3599ZM212.074 72.6729C216.268 74.4332 219.086 76.894 220.931 79.9699C222.818 83.1146 223.984 87.4008 223.984 93.2184H237.984C237.984 85.5694 236.449 78.6222 232.936 72.767C229.382 66.8429 224.099 62.537 217.493 59.764L212.074 72.6729ZM223.984 93.2184C223.984 101.16 221.937 107.021 218.366 111.386L229.201 120.251C235.23 112.882 237.984 103.677 237.984 93.2184H223.984ZM218.305 111.461C214.606 116.112 209.345 119.747 202.138 122.188L206.629 135.448C215.956 132.289 223.628 127.258 229.262 120.176L218.305 111.461ZM202.105 122.2C194.848 124.698 186.309 126.018 176.384 126.018V140.018C187.524 140.018 197.652 138.539 206.662 135.437L202.105 122.2Z" fill="white" fill-opacity="0.4" mask="url(#path-1-inside-1_3766_108)"/>
</svg>
