<svg width="307" height="171" viewBox="0 0 307 171" fill="none" xmlns="http://www.w3.org/2000/svg">
<g clip-path="url(#clip0_3766_106)">
<g clip-path="url(#clip1_3766_106)">
<mask id="path-1-inside-1_3766_106" fill="white">
<path d="M122.58 154.018C107.78 154.018 95.8471 151.485 86.7805 146.418C77.8471 141.218 71.3138 133.685 67.1805 123.818C63.0471 113.952 60.9805 101.885 60.9805 87.6184C60.9805 73.3518 63.0471 61.2851 67.1805 51.4184C71.3138 41.5518 77.8471 34.0851 86.7805 29.0184C95.8471 23.8184 107.78 21.2184 122.58 21.2184C144.714 21.2184 160.514 26.9518 169.98 38.4184C179.447 49.7518 184.18 66.1518 184.18 87.6184C184.18 108.952 179.447 125.352 169.98 136.818C160.514 148.285 144.714 154.018 122.58 154.018ZM122.58 122.018C131.247 122.018 137.247 119.152 140.58 113.418C144.047 107.552 145.78 98.9518 145.78 87.6184C145.78 76.1518 144.047 67.5518 140.58 61.8184C137.247 56.0851 131.247 53.2184 122.58 53.2184C113.914 53.2184 107.847 56.0851 104.38 61.8184C101.047 67.5518 99.3805 76.1518 99.3805 87.6184C99.3805 98.9518 101.047 107.552 104.38 113.418C107.847 119.152 113.914 122.018 122.58 122.018ZM236.384 154.018C232.65 154.018 228.117 153.685 222.784 153.018C217.45 152.485 212.184 151.685 206.984 150.618C201.917 149.552 197.65 148.352 194.184 147.018V117.018C199.917 119.552 206.05 121.418 212.584 122.618C219.117 123.685 225.05 124.218 230.384 124.218C237.85 124.218 243.384 123.285 246.984 121.418C250.717 119.552 252.584 116.085 252.584 111.018C252.584 103.552 246.717 99.8184 234.984 99.8184H213.184L215.584 74.6184H233.784C239.65 74.6184 243.85 73.6851 246.384 71.8184C248.917 69.9518 250.184 66.9518 250.184 62.8184C250.184 58.9518 248.517 56.0184 245.184 54.0184C241.984 52.0184 236.717 51.0184 229.384 51.0184C223.517 51.0184 217.584 51.6851 211.584 53.0184C205.584 54.3518 200.45 56.0851 196.184 58.2184V28.4184C201.117 26.4184 207.25 24.7518 214.584 23.4184C221.917 21.9518 229.25 21.2184 236.584 21.2184C247.784 21.2184 257.25 22.8184 264.984 26.0184C272.717 29.2184 278.584 33.6184 282.584 39.2184C286.584 44.8184 288.584 51.2184 288.584 58.4184C288.584 64.5518 287.384 70.1518 284.984 75.2184C282.717 80.2851 279.317 84.2851 274.784 87.2184C285.584 91.7518 290.984 100.752 290.984 114.218C290.984 123.418 288.584 130.952 283.784 136.818C279.117 142.685 272.65 147.018 264.384 149.818C256.25 152.618 246.917 154.018 236.384 154.018Z"/>
</mask>
<path d="M86.7805 146.418L83.259 152.468L83.3121 152.499L83.3657 152.529L86.7805 146.418ZM67.1805 123.818L60.7241 126.523L67.1805 123.818ZM67.1805 51.4184L60.7241 48.7137L67.1805 51.4184ZM86.7805 29.0184L90.2339 35.1073L90.2485 35.099L90.2631 35.0906L86.7805 29.0184ZM169.98 38.4184L164.582 42.875L164.595 42.8905L164.608 42.9059L169.98 38.4184ZM169.98 136.818L175.379 141.275H175.379L169.98 136.818ZM140.58 113.418L134.554 109.857L134.541 109.879L134.529 109.9L140.58 113.418ZM140.58 61.8184L134.529 65.3368L134.559 65.3888L134.59 65.4404L140.58 61.8184ZM104.38 61.8184L98.3903 58.1965L98.3592 58.248L98.3289 58.3001L104.38 61.8184ZM104.38 113.418L98.2943 116.876L98.3412 116.959L98.3903 117.04L104.38 113.418ZM122.58 147.018C108.498 147.018 97.868 144.596 90.1952 140.308L83.3657 152.529C93.8263 158.375 107.063 161.018 122.58 161.018V147.018ZM90.302 140.369C82.7332 135.963 77.2038 129.629 73.6368 121.114L60.7241 126.523C65.4238 137.742 72.961 146.474 83.259 152.468L90.302 140.369ZM73.6368 121.114C69.9604 112.338 67.9805 101.249 67.9805 87.6184H53.9805C53.9805 102.521 56.1338 115.566 60.7241 126.523L73.6368 121.114ZM67.9805 87.6184C67.9805 73.9874 69.9604 62.899 73.6368 54.1231L60.7241 48.7137C56.1338 59.6712 53.9805 72.7161 53.9805 87.6184H67.9805ZM73.6368 54.1231C77.1982 45.6219 82.7076 39.3759 90.2339 35.1073L83.3271 22.9296C72.9867 28.7943 65.4294 37.4817 60.7241 48.7137L73.6368 54.1231ZM90.2631 35.0906C97.9188 30.6998 108.522 28.2184 122.58 28.2184V14.2184C107.039 14.2184 93.7754 16.937 83.2979 22.9462L90.2631 35.0906ZM122.58 28.2184C143.668 28.2184 156.991 33.68 164.582 42.875L175.379 33.9619C164.036 20.2235 145.759 14.2184 122.58 14.2184V28.2184ZM164.608 42.9059C172.637 52.5175 177.18 67.0664 177.18 87.6184H191.18C191.18 65.2371 186.258 46.986 175.353 33.9309L164.608 42.9059ZM177.18 87.6184C177.18 108.017 172.645 122.596 164.582 132.362L175.379 141.275C186.249 128.108 191.18 109.886 191.18 87.6184H177.18ZM164.582 132.362C156.991 141.557 143.668 147.018 122.58 147.018V161.018C145.759 161.018 164.036 155.013 175.379 141.275L164.582 132.362ZM122.58 129.018C132.864 129.018 141.66 125.489 146.632 116.937L134.529 109.9C132.834 112.815 129.63 115.018 122.58 115.018V129.018ZM146.607 116.98C151.004 109.539 152.78 99.4657 152.78 87.6184H138.78C138.78 98.4379 137.091 105.565 134.554 109.857L146.607 116.98ZM152.78 87.6184C152.78 75.6746 151.016 65.5482 146.571 58.1965L134.59 65.4404C137.078 69.5554 138.78 76.629 138.78 87.6184H152.78ZM146.632 58.3001C141.66 49.7482 132.864 46.2184 122.58 46.2184V60.2184C129.63 60.2184 132.834 62.422 134.529 65.3368L146.632 58.3001ZM122.58 46.2184C112.284 46.2184 103.498 49.7484 98.3903 58.1965L110.371 65.4404C112.196 62.4218 115.543 60.2184 122.58 60.2184V46.2184ZM98.3289 58.3001C94.072 65.6221 92.3805 75.7027 92.3805 87.6184H106.38C106.38 76.6008 108.022 69.4815 110.432 65.3368L98.3289 58.3001ZM92.3805 87.6184C92.3805 99.4368 94.0835 109.466 98.2943 116.876L110.467 109.96C108.011 105.638 106.38 98.4667 106.38 87.6184H92.3805ZM98.3903 117.04C103.498 125.488 112.284 129.018 122.58 129.018V115.018C115.543 115.018 112.196 112.815 110.371 109.796L98.3903 117.04ZM222.784 153.018L223.652 146.072L223.566 146.062L223.48 146.053L222.784 153.018ZM206.984 150.618L205.542 157.468L205.559 157.472L205.577 157.476L206.984 150.618ZM194.184 147.018H187.184V151.826L191.671 153.552L194.184 147.018ZM194.184 117.018L197.013 110.616L187.184 106.273V117.018H194.184ZM212.584 122.618L211.319 129.503L211.387 129.516L211.456 129.527L212.584 122.618ZM246.984 121.418L243.853 115.157L243.807 115.18L243.761 115.204L246.984 121.418ZM213.184 99.8184L206.215 99.1548L205.485 106.818H213.184V99.8184ZM215.584 74.6184V67.6184H209.219L208.615 73.9548L215.584 74.6184ZM245.184 54.0184L241.474 59.9544L241.528 59.9881L241.582 60.0209L245.184 54.0184ZM211.584 53.0184L210.065 46.1851L210.065 46.1851L211.584 53.0184ZM196.184 58.2184H189.184V69.5447L199.314 64.4794L196.184 58.2184ZM196.184 28.4184L193.554 21.9313L189.184 23.7029V28.4184H196.184ZM214.584 23.4184L215.836 30.3055L215.896 30.2945L215.956 30.2825L214.584 23.4184ZM264.984 26.0184L267.66 19.5503L267.66 19.5503L264.984 26.0184ZM284.984 75.2184L278.657 72.2218L278.625 72.2905L278.594 72.3599L284.984 75.2184ZM274.784 87.2184L270.981 81.3414L259.852 88.5425L272.074 93.6729L274.784 87.2184ZM283.784 136.818L278.366 132.386L278.335 132.423L278.305 132.461L283.784 136.818ZM264.384 149.818L262.138 143.188L262.121 143.194L262.105 143.2L264.384 149.818ZM236.384 147.018C233.036 147.018 228.811 146.717 223.652 146.072L221.915 159.964C227.423 160.653 232.265 161.018 236.384 161.018V147.018ZM223.48 146.053C218.383 145.543 213.353 144.779 208.39 143.761L205.577 157.476C211.014 158.591 216.518 159.427 222.087 159.984L223.48 146.053ZM208.426 143.769C203.593 142.751 199.71 141.644 196.696 140.485L191.671 153.552C195.591 155.06 200.241 156.352 205.542 157.468L208.426 143.769ZM201.184 147.018V117.018H187.184V147.018H201.184ZM191.354 123.421C197.618 126.189 204.279 128.21 211.319 129.503L213.848 115.734C207.821 114.627 202.216 112.915 197.013 110.616L191.354 123.421ZM211.456 129.527C218.277 130.641 224.595 131.218 230.384 131.218V117.218C225.505 117.218 219.957 116.73 213.712 115.71L211.456 129.527ZM230.384 131.218C238.178 131.218 245.087 130.287 250.206 127.633L243.761 115.204C241.68 116.283 237.523 117.218 230.384 117.218V131.218ZM250.114 127.679C253.189 126.142 255.688 123.819 257.347 120.737C258.965 117.733 259.584 114.387 259.584 111.018H245.584C245.584 112.717 245.269 113.637 245.02 114.1C244.813 114.485 244.512 114.828 243.853 115.157L250.114 127.679ZM259.584 111.018C259.584 105.103 257.066 99.974 251.942 96.7128C247.354 93.7933 241.367 92.8184 234.984 92.8184V106.818C240.333 106.818 243.147 107.71 244.425 108.524C244.966 108.868 245.173 109.157 245.283 109.366C245.404 109.598 245.584 110.079 245.584 111.018H259.584ZM234.984 92.8184H213.184V106.818H234.984V92.8184ZM220.152 100.482L222.552 75.2821L208.615 73.9548L206.215 99.1548L220.152 100.482ZM215.584 81.6184H233.784V67.6184H215.584V81.6184ZM233.784 81.6184C240.029 81.6184 246.137 80.6955 250.536 77.4538L242.231 66.183C241.564 66.6747 239.271 67.6184 233.784 67.6184V81.6184ZM250.536 77.4538C255.396 73.8727 257.184 68.4132 257.184 62.8184H243.184C243.184 65.4903 242.438 66.0309 242.231 66.183L250.536 77.4538ZM257.184 62.8184C257.184 56.4768 254.213 51.2727 248.785 48.016L241.582 60.0209C242.821 60.7641 243.184 61.4267 243.184 62.8184H257.184ZM248.894 48.0824C243.948 44.9914 236.998 44.0184 229.384 44.0184V58.0184C236.436 58.0184 240.019 59.0455 241.474 59.9544L248.894 48.0824ZM229.384 44.0184C222.982 44.0184 216.54 44.7463 210.065 46.1851L213.102 59.8517C218.627 58.6239 224.051 58.0184 229.384 58.0184V44.0184ZM210.065 46.1851C203.658 47.609 197.954 49.507 193.053 51.9574L199.314 64.4794C202.947 62.6632 207.509 61.0946 213.102 59.8517L210.065 46.1851ZM203.184 58.2184V28.4184H189.184V58.2184H203.184ZM198.814 34.9056C203.166 33.1412 208.802 31.5843 215.836 30.3055L213.331 16.5313C205.698 17.9192 199.068 19.6956 193.554 21.9313L198.814 34.9056ZM215.956 30.2825C222.847 28.9044 229.72 28.2184 236.584 28.2184V14.2184C228.78 14.2184 220.987 14.9991 213.211 16.5544L215.956 30.2825ZM236.584 28.2184C247.158 28.2184 255.657 29.7347 262.307 32.4865L267.66 19.5503C258.844 15.9022 248.409 14.2184 236.584 14.2184V28.2184ZM262.307 32.4865C269.092 35.2941 273.799 38.9639 276.887 43.2871L288.28 35.1498C283.368 28.273 276.342 23.1428 267.66 19.5503L262.307 32.4865ZM276.887 43.2871C279.999 47.6428 281.584 52.6056 281.584 58.4184H295.584C295.584 49.8312 293.169 41.9941 288.28 35.1498L276.887 43.2871ZM281.584 58.4184C281.584 63.6141 280.573 68.1771 278.657 72.2218L291.31 78.215C294.194 72.1264 295.584 65.4895 295.584 58.4184H281.584ZM278.594 72.3599C276.863 76.2281 274.345 79.1645 270.981 81.3414L278.586 93.0954C284.289 89.4056 288.57 84.3421 291.373 78.077L278.594 72.3599ZM272.074 93.6729C276.268 95.4332 279.086 97.894 280.931 100.97C282.818 104.115 283.984 108.401 283.984 114.218H297.984C297.984 106.569 296.449 99.6222 292.936 93.767C289.382 87.8429 284.099 83.537 277.493 80.764L272.074 93.6729ZM283.984 114.218C283.984 122.16 281.937 128.021 278.366 132.386L289.201 141.251C295.23 133.882 297.984 124.677 297.984 114.218H283.984ZM278.305 132.461C274.606 137.112 269.345 140.747 262.138 143.188L266.629 156.448C275.956 153.289 283.628 148.258 289.262 141.176L278.305 132.461ZM262.105 143.2C254.848 145.698 246.309 147.018 236.384 147.018V161.018C247.524 161.018 257.652 159.539 266.662 156.437L262.105 143.2Z" fill="white" fill-opacity="0.4" mask="url(#path-1-inside-1_3766_106)"/>
</g>
<g clip-path="url(#clip2_3766_106)">
<path d="M91.5 109.018C91.5 109.018 143.291 111.518 176.5 111.518C209.709 111.518 261.5 109.018 261.5 109.018C265.262 117.724 267.938 122.218 274.5 129.018H78.5C85.4257 121.9 88.1215 117.476 91.5 109.018Z" fill="#969000"/>
<g filter="url(#filter0_di_3766_106)">
<path d="M91.5 109.018C91.5 109.018 143.291 111.518 176.5 111.518C209.709 111.518 261.5 109.018 261.5 109.018V160.018C261.5 160.018 209.926 170.018 176.5 170.018C143.074 170.018 91.5 160.018 91.5 160.018V109.018Z" fill="#FFD940"/>
</g>
<path d="M135.777 147.018V134.138H142.417C143.47 134.138 144.337 134.352 145.017 134.778C145.71 135.192 146.224 135.758 146.557 136.478C146.89 137.198 147.057 137.998 147.057 138.878C147.057 139.785 146.864 140.592 146.477 141.298C146.09 142.005 145.544 142.558 144.837 142.958C144.13 143.358 143.297 143.558 142.337 143.558H139.537V147.018H135.777ZM139.537 140.678H141.477C142.064 140.678 142.497 140.512 142.777 140.178C143.07 139.845 143.217 139.412 143.217 138.878C143.217 138.305 143.084 137.852 142.817 137.518C142.55 137.185 142.137 137.018 141.577 137.018H139.537V140.678ZM148.062 147.018V134.138H151.822V138.938H156.262V134.138H160.022V147.018H156.262V142.218H151.822V147.018H148.062ZM161.432 147.018L166.372 134.138H170.352L175.292 147.018H171.372L170.292 144.278H166.412L165.352 147.018H161.432ZM166.912 141.578H169.792L168.352 137.798L166.912 141.578ZM180.407 147.218C179.54 147.218 178.72 147.152 177.947 147.018C177.174 146.872 176.514 146.672 175.967 146.418V143.318C176.567 143.598 177.234 143.825 177.967 143.998C178.7 144.172 179.387 144.258 180.027 144.258C180.694 144.258 181.194 144.205 181.527 144.098C181.874 143.978 182.047 143.718 182.047 143.318C182.047 143.038 181.947 142.818 181.747 142.658C181.56 142.498 181.26 142.352 180.847 142.218C180.447 142.085 179.92 141.918 179.267 141.718C178.4 141.438 177.714 141.132 177.207 140.798C176.7 140.465 176.334 140.058 176.107 139.578C175.894 139.098 175.787 138.512 175.787 137.818C175.787 136.552 176.234 135.592 177.127 134.938C178.034 134.272 179.374 133.938 181.147 133.938C181.854 133.938 182.58 133.998 183.327 134.118C184.087 134.238 184.7 134.372 185.167 134.518V137.638C184.54 137.385 183.94 137.205 183.367 137.098C182.794 136.992 182.254 136.938 181.747 136.938C181.16 136.938 180.66 136.985 180.247 137.078C179.834 137.172 179.627 137.412 179.627 137.798C179.627 138.132 179.8 138.378 180.147 138.538C180.507 138.685 181.14 138.878 182.047 139.118C183.1 139.398 183.9 139.738 184.447 140.138C185.007 140.538 185.387 141.005 185.587 141.538C185.787 142.058 185.887 142.652 185.887 143.318C185.887 144.492 185.434 145.438 184.527 146.158C183.62 146.865 182.247 147.218 180.407 147.218ZM187.281 147.018V134.138H197.041V137.018H191.041V139.118H196.301V142.038H191.041V144.138H197.041V147.018H187.281ZM197.838 142.778V139.898H205.938V142.778H197.838ZM211.159 147.218C210.786 147.218 210.333 147.185 209.799 147.118C209.266 147.065 208.739 146.985 208.219 146.878C207.713 146.772 207.286 146.652 206.939 146.518V143.518C207.513 143.772 208.126 143.958 208.779 144.078C209.433 144.185 210.026 144.238 210.559 144.238C211.306 144.238 211.859 144.145 212.219 143.958C212.593 143.772 212.779 143.425 212.779 142.918C212.779 142.172 212.193 141.798 211.019 141.798H208.839L209.079 139.278H210.899C211.486 139.278 211.906 139.185 212.159 138.998C212.413 138.812 212.539 138.512 212.539 138.098C212.539 137.712 212.373 137.418 212.039 137.218C211.719 137.018 211.193 136.918 210.459 136.918C209.873 136.918 209.279 136.985 208.679 137.118C208.079 137.252 207.566 137.425 207.139 137.638V134.658C207.633 134.458 208.246 134.292 208.979 134.158C209.713 134.012 210.446 133.938 211.179 133.938C212.299 133.938 213.246 134.098 214.019 134.418C214.793 134.738 215.379 135.178 215.779 135.738C216.179 136.298 216.379 136.938 216.379 137.658C216.379 138.272 216.259 138.832 216.019 139.338C215.793 139.845 215.453 140.245 214.999 140.538C216.079 140.992 216.619 141.892 216.619 143.238C216.619 144.158 216.379 144.912 215.899 145.498C215.433 146.085 214.786 146.518 213.959 146.798C213.146 147.078 212.213 147.218 211.159 147.218Z" fill="#1C1C1C"/>
</g>
</g>
<defs>
<filter id="filter0_di_3766_106" x="83.4" y="103.918" width="186.2" height="77.2" filterUnits="userSpaceOnUse" color-interpolation-filters="sRGB">
<feFlood flood-opacity="0" result="BackgroundImageFix"/>
<feColorMatrix in="SourceAlpha" type="matrix" values="0 0 0 0 0 0 0 0 0 0 0 0 0 0 0 0 0 0 127 0" result="hardAlpha"/>
<feOffset dy="3"/>
<feGaussianBlur stdDeviation="4.05"/>
<feComposite in2="hardAlpha" operator="out"/>
<feColorMatrix type="matrix" values="0 0 0 0 0 0 0 0 0 0 0 0 0 0 0 0 0 0 0.2 0"/>
<feBlend mode="normal" in2="BackgroundImageFix" result="effect1_dropShadow_3766_106"/>
<feBlend mode="normal" in="SourceGraphic" in2="effect1_dropShadow_3766_106" result="shape"/>
<feColorMatrix in="SourceAlpha" type="matrix" values="0 0 0 0 0 0 0 0 0 0 0 0 0 0 0 0 0 0 127 0" result="hardAlpha"/>
<feOffset dy="2"/>
<feGaussianBlur stdDeviation="4.25"/>
<feComposite in2="hardAlpha" operator="arithmetic" k2="-1" k3="1"/>
<feColorMatrix type="matrix" values="0 0 0 0 0 0 0 0 0 0 0 0 0 0 0 0 0 0 0.2 0"/>
<feBlend mode="normal" in2="shape" result="effect2_innerShadow_3766_106"/>
</filter>
<clipPath id="clip0_3766_106">
<rect width="351" height="170" fill="white" transform="translate(0.5 0.0184326)"/>
</clipPath>
<clipPath id="clip1_3766_106">
<rect width="351" height="129" fill="white" transform="translate(0.5 0.0184326)"/>
</clipPath>
<clipPath id="clip2_3766_106">
<rect width="196" height="61" fill="white" transform="translate(78.5 109.018)"/>
</clipPath>
</defs>
</svg>
