<svg width="352" height="171" viewBox="0 0 352 171" fill="none" xmlns="http://www.w3.org/2000/svg">
<g clip-path="url(#clip0_3766_157)">
<g clip-path="url(#clip1_3766_157)">
<mask id="path-1-inside-1_3766_157" fill="white">
<path d="M123.252 154.018C108.452 154.018 96.519 151.485 87.4523 146.418C78.519 141.218 71.9857 133.685 67.8523 123.818C63.719 113.952 61.6523 101.885 61.6523 87.6184C61.6523 73.3518 63.719 61.2851 67.8523 51.4184C71.9857 41.5518 78.519 34.0851 87.4523 29.0184C96.519 23.8184 108.452 21.2184 123.252 21.2184C145.386 21.2184 161.186 26.9518 170.652 38.4184C180.119 49.7518 184.852 66.1518 184.852 87.6184C184.852 108.952 180.119 125.352 170.652 136.818C161.186 148.285 145.386 154.018 123.252 154.018ZM123.252 122.018C131.919 122.018 137.919 119.152 141.252 113.418C144.719 107.552 146.452 98.9518 146.452 87.6184C146.452 76.1518 144.719 67.5518 141.252 61.8184C137.919 56.0851 131.919 53.2184 123.252 53.2184C114.586 53.2184 108.519 56.0851 105.052 61.8184C101.719 67.5518 100.052 76.1518 100.052 87.6184C100.052 98.9518 101.719 107.552 105.052 113.418C108.519 119.152 114.586 122.018 123.252 122.018ZM194.855 152.018V134.818C198.589 127.752 203.122 121.418 208.455 115.818C213.789 110.218 219.722 104.485 226.255 98.6184C231.722 93.6851 236.122 89.6184 239.455 86.4184C242.922 83.2184 245.455 80.2184 247.055 77.4184C248.789 74.4851 249.655 71.1518 249.655 67.4184C249.655 57.9518 243.455 53.2184 231.055 53.2184C225.322 53.2184 219.722 53.8851 214.255 55.2184C208.922 56.5518 203.855 58.2184 199.055 60.2184V28.2184C204.522 26.0851 210.922 24.4184 218.255 23.2184C225.589 21.8851 232.989 21.2184 240.455 21.2184C256.455 21.2184 268.389 25.0184 276.255 32.6184C284.122 40.0851 288.055 50.1518 288.055 62.8184C288.055 68.8184 287.322 74.0184 285.855 78.4184C284.522 82.6851 282.389 86.6184 279.455 90.2184C276.522 93.8184 272.722 97.6851 268.055 101.818C263.922 105.418 259.855 109.018 255.855 112.618C251.855 116.218 248.655 119.752 246.255 123.218H289.255V152.018H194.855Z"/>
</mask>
<path d="M87.4523 146.418L83.9309 152.468L83.984 152.499L84.0376 152.529L87.4523 146.418ZM67.8523 123.818L61.396 126.523L67.8523 123.818ZM67.8523 51.4184L61.396 48.7137L67.8523 51.4184ZM87.4523 29.0184L90.9057 35.1073L90.9203 35.099L90.9349 35.0906L87.4523 29.0184ZM170.652 38.4184L165.254 42.875L165.267 42.8905L165.28 42.9059L170.652 38.4184ZM170.652 136.818L176.05 141.275H176.05L170.652 136.818ZM141.252 113.418L135.226 109.857L135.213 109.879L135.201 109.9L141.252 113.418ZM141.252 61.8184L135.201 65.3368L135.231 65.3888L135.262 65.4404L141.252 61.8184ZM105.052 61.8184L99.0622 58.1965L99.0311 58.248L99.0008 58.3001L105.052 61.8184ZM105.052 113.418L98.9662 116.876L99.0131 116.959L99.0622 117.04L105.052 113.418ZM123.252 147.018C109.17 147.018 98.5399 144.596 90.8671 140.308L84.0376 152.529C94.4981 158.375 107.735 161.018 123.252 161.018V147.018ZM90.9738 140.369C83.4051 135.963 77.8757 129.629 74.3087 121.114L61.396 126.523C66.0956 137.742 73.6329 146.474 83.9309 152.468L90.9738 140.369ZM74.3087 121.114C70.6323 112.338 68.6523 101.249 68.6523 87.6184H54.6523C54.6523 102.521 56.8057 115.566 61.396 126.523L74.3087 121.114ZM68.6523 87.6184C68.6523 73.9874 70.6323 62.899 74.3087 54.1231L61.396 48.7137C56.8057 59.6712 54.6523 72.7161 54.6523 87.6184H68.6523ZM74.3087 54.1231C77.87 45.6219 83.3795 39.3759 90.9057 35.1073L83.999 22.9296C73.6585 28.7943 66.1013 37.4817 61.396 48.7137L74.3087 54.1231ZM90.9349 35.0906C98.5907 30.6998 109.194 28.2184 123.252 28.2184V14.2184C107.711 14.2184 94.4473 16.937 83.9698 22.9462L90.9349 35.0906ZM123.252 28.2184C144.34 28.2184 157.663 33.68 165.254 42.875L176.05 33.9619C164.708 20.2235 146.431 14.2184 123.252 14.2184V28.2184ZM165.28 42.9059C173.309 52.5175 177.852 67.0664 177.852 87.6184H191.852C191.852 65.2371 186.93 46.986 176.025 33.9309L165.28 42.9059ZM177.852 87.6184C177.852 108.017 173.317 122.596 165.254 132.362L176.05 141.275C186.921 128.108 191.852 109.886 191.852 87.6184H177.852ZM165.254 132.362C157.663 141.557 144.34 147.018 123.252 147.018V161.018C146.431 161.018 164.708 155.013 176.05 141.275L165.254 132.362ZM123.252 129.018C133.536 129.018 142.332 125.489 147.304 116.937L135.201 109.9C133.506 112.815 130.302 115.018 123.252 115.018V129.018ZM147.279 116.98C151.676 109.539 153.452 99.4657 153.452 87.6184H139.452C139.452 98.4379 137.762 105.565 135.226 109.857L147.279 116.98ZM153.452 87.6184C153.452 75.6746 151.688 65.5482 147.242 58.1965L135.262 65.4404C137.75 69.5554 139.452 76.629 139.452 87.6184H153.452ZM147.304 58.3001C142.332 49.7482 133.536 46.2184 123.252 46.2184V60.2184C130.302 60.2184 133.506 62.422 135.201 65.3368L147.304 58.3001ZM123.252 46.2184C112.956 46.2184 104.17 49.7484 99.0622 58.1965L111.042 65.4404C112.868 62.4218 116.215 60.2184 123.252 60.2184V46.2184ZM99.0008 58.3001C94.7438 65.6221 93.0523 75.7027 93.0523 87.6184H107.052C107.052 76.6008 108.694 69.4815 111.104 65.3368L99.0008 58.3001ZM93.0523 87.6184C93.0523 99.4368 94.7554 109.466 98.9662 116.876L111.139 109.96C108.683 105.638 107.052 98.4667 107.052 87.6184H93.0523ZM99.0622 117.04C104.17 125.488 112.956 129.018 123.252 129.018V115.018C116.215 115.018 112.868 112.815 111.042 109.796L99.0622 117.04ZM194.855 152.018H187.855V159.018H194.855V152.018ZM194.855 134.818L188.666 131.549L187.855 133.083V134.818H194.855ZM208.455 115.818L203.387 110.991L208.455 115.818ZM226.255 98.6184L230.932 103.827L230.939 103.821L230.945 103.815L226.255 98.6184ZM239.455 86.4184L234.708 81.2748L234.657 81.3213L234.608 81.3687L239.455 86.4184ZM247.055 77.4184L241.029 73.8573L241.003 73.9012L240.978 73.9455L247.055 77.4184ZM214.255 55.2184L212.597 48.4178L212.577 48.4226L212.558 48.4274L214.255 55.2184ZM199.055 60.2184H192.055V70.7184L201.748 66.68L199.055 60.2184ZM199.055 28.2184L196.511 21.6974L192.055 23.436V28.2184H199.055ZM218.255 23.2184L219.386 30.1265L219.447 30.1166L219.508 30.1055L218.255 23.2184ZM276.255 32.6184L271.392 37.6528L271.414 37.6743L271.436 37.6956L276.255 32.6184ZM285.855 78.4184L279.215 76.2048L279.194 76.2675L279.174 76.3305L285.855 78.4184ZM279.455 90.2184L274.029 85.7967V85.7967L279.455 90.2184ZM268.055 101.818L272.653 107.097L272.675 107.078L272.697 107.059L268.055 101.818ZM255.855 112.618L251.173 107.415V107.415L255.855 112.618ZM246.255 123.218L240.5 119.234L232.895 130.218H246.255V123.218ZM289.255 123.218H296.255V116.218H289.255V123.218ZM289.255 152.018V159.018H296.255V152.018H289.255ZM201.855 152.018V134.818H187.855V152.018H201.855ZM201.045 138.088C204.488 131.571 208.649 125.765 213.524 120.646L203.387 110.991C197.595 117.072 192.69 123.933 188.666 131.549L201.045 138.088ZM213.524 120.646C218.717 115.194 224.517 109.588 230.932 103.827L221.579 93.4101C214.927 99.3826 208.861 105.243 203.387 110.991L213.524 120.646ZM230.945 103.815C236.438 98.8582 240.897 94.7382 244.303 91.4681L234.608 81.3687C231.347 84.4987 227.006 88.5119 221.566 93.4217L230.945 103.815ZM244.203 91.5621C247.976 88.0796 251.055 84.5284 253.133 80.8914L240.978 73.9455C239.856 75.9084 237.868 78.3572 234.708 81.2748L244.203 91.5621ZM253.082 80.9795C255.513 76.866 256.655 72.281 256.655 67.4184H242.655C242.655 70.0226 242.065 72.1042 241.029 73.8573L253.082 80.9795ZM256.655 67.4184C256.655 61.0233 254.463 55.1822 249.253 51.2045C244.4 47.4996 237.948 46.2184 231.055 46.2184V60.2184C236.563 60.2184 239.411 61.3039 240.758 62.3323C241.748 63.088 242.655 64.3469 242.655 67.4184H256.655ZM231.055 46.2184C224.774 46.2184 218.617 46.9495 212.597 48.4178L215.914 62.0191C220.828 60.8207 225.87 60.2184 231.055 60.2184V46.2184ZM212.558 48.4274C206.904 49.8408 201.504 51.615 196.363 53.7569L201.748 66.68C206.207 64.8219 210.94 63.2627 215.953 62.0094L212.558 48.4274ZM206.055 60.2184V28.2184H192.055V60.2184H206.055ZM201.6 34.7395C206.508 32.8241 212.415 31.2672 219.386 30.1265L217.125 16.3103C209.429 17.5696 202.536 19.3461 196.511 21.6974L201.6 34.7395ZM219.508 30.1055C226.427 28.8474 233.408 28.2184 240.455 28.2184V14.2184C232.57 14.2184 224.751 14.9227 217.003 16.3313L219.508 30.1055ZM240.455 28.2184C255.475 28.2184 265.327 31.7936 271.392 37.6528L281.119 27.5841C271.451 18.2432 257.436 14.2184 240.455 14.2184V28.2184ZM271.436 37.6956C277.675 43.6171 281.055 51.7208 281.055 62.8184H295.055C295.055 48.5827 290.569 36.5531 281.074 27.5413L271.436 37.6956ZM281.055 62.8184C281.055 68.275 280.385 72.693 279.215 76.2048L292.496 80.632C294.259 75.3439 295.055 69.3618 295.055 62.8184H281.055ZM279.174 76.3305C278.117 79.7135 276.421 82.8604 274.029 85.7967L284.882 94.6401C288.356 90.3765 290.927 85.6567 292.537 80.5063L279.174 76.3305ZM274.029 85.7967C271.4 89.0232 267.887 92.6169 263.414 96.5783L272.697 107.059C277.558 102.753 281.644 98.6137 284.882 94.6401L274.029 85.7967ZM263.458 96.5399C259.297 100.164 255.201 103.79 251.173 107.415L260.538 117.821C264.509 114.247 268.548 110.673 272.653 107.097L263.458 96.5399ZM251.173 107.415C246.874 111.284 243.28 115.218 240.5 119.234L252.011 127.203C254.031 124.285 256.837 121.153 260.538 117.821L251.173 107.415ZM246.255 130.218H289.255V116.218H246.255V130.218ZM282.255 123.218V152.018H296.255V123.218H282.255ZM289.255 145.018H194.855V159.018H289.255V145.018Z" fill="white" fill-opacity="0.4" mask="url(#path-1-inside-1_3766_157)"/>
</g>
<g clip-path="url(#clip2_3766_157)">
<path d="M91.5 109.018C91.5 109.018 143.291 111.518 176.5 111.518C209.709 111.518 261.5 109.018 261.5 109.018C265.262 117.724 267.938 122.218 274.5 129.018H78.5C85.4257 121.9 88.1215 117.476 91.5 109.018Z" fill="#969000"/>
<g filter="url(#filter0_di_3766_157)">
<path d="M91.5 109.018C91.5 109.018 143.291 111.518 176.5 111.518C209.709 111.518 261.5 109.018 261.5 109.018V160.018C261.5 160.018 209.926 170.018 176.5 170.018C143.074 170.018 91.5 160.018 91.5 160.018V109.018Z" fill="#FFD940"/>
</g>
<path d="M135.894 147.018V134.138H142.534C143.587 134.138 144.454 134.352 145.134 134.778C145.827 135.192 146.341 135.758 146.674 136.478C147.007 137.198 147.174 137.998 147.174 138.878C147.174 139.785 146.981 140.592 146.594 141.298C146.207 142.005 145.661 142.558 144.954 142.958C144.247 143.358 143.414 143.558 142.454 143.558H139.654V147.018H135.894ZM139.654 140.678H141.594C142.181 140.678 142.614 140.512 142.894 140.178C143.187 139.845 143.334 139.412 143.334 138.878C143.334 138.305 143.201 137.852 142.934 137.518C142.667 137.185 142.254 137.018 141.694 137.018H139.654V140.678ZM148.179 147.018V134.138H151.939V138.938H156.379V134.138H160.139V147.018H156.379V142.218H151.939V147.018H148.179ZM161.549 147.018L166.489 134.138H170.469L175.409 147.018H171.489L170.409 144.278H166.529L165.469 147.018H161.549ZM167.029 141.578H169.909L168.469 137.798L167.029 141.578ZM180.524 147.218C179.658 147.218 178.838 147.152 178.064 147.018C177.291 146.872 176.631 146.672 176.084 146.418V143.318C176.684 143.598 177.351 143.825 178.084 143.998C178.818 144.172 179.504 144.258 180.144 144.258C180.811 144.258 181.311 144.205 181.644 144.098C181.991 143.978 182.164 143.718 182.164 143.318C182.164 143.038 182.064 142.818 181.864 142.658C181.678 142.498 181.378 142.352 180.964 142.218C180.564 142.085 180.038 141.918 179.384 141.718C178.518 141.438 177.831 141.132 177.324 140.798C176.818 140.465 176.451 140.058 176.224 139.578C176.011 139.098 175.904 138.512 175.904 137.818C175.904 136.552 176.351 135.592 177.244 134.938C178.151 134.272 179.491 133.938 181.264 133.938C181.971 133.938 182.698 133.998 183.444 134.118C184.204 134.238 184.818 134.372 185.284 134.518V137.638C184.658 137.385 184.058 137.205 183.484 137.098C182.911 136.992 182.371 136.938 181.864 136.938C181.278 136.938 180.778 136.985 180.364 137.078C179.951 137.172 179.744 137.412 179.744 137.798C179.744 138.132 179.918 138.378 180.264 138.538C180.624 138.685 181.258 138.878 182.164 139.118C183.218 139.398 184.018 139.738 184.564 140.138C185.124 140.538 185.504 141.005 185.704 141.538C185.904 142.058 186.004 142.652 186.004 143.318C186.004 144.492 185.551 145.438 184.644 146.158C183.738 146.865 182.364 147.218 180.524 147.218ZM187.398 147.018V134.138H197.158V137.018H191.158V139.118H196.418V142.038H191.158V144.138H197.158V147.018H187.398ZM197.955 142.778V139.898H206.055V142.778H197.955ZM207.057 147.018V145.298C207.43 144.592 207.883 143.958 208.417 143.398C208.95 142.838 209.543 142.265 210.197 141.678C210.743 141.185 211.183 140.778 211.517 140.458C211.863 140.138 212.117 139.838 212.277 139.558C212.45 139.265 212.537 138.932 212.537 138.558C212.537 137.612 211.917 137.138 210.677 137.138C210.103 137.138 209.543 137.205 208.997 137.338C208.463 137.472 207.957 137.638 207.477 137.838V134.638C208.023 134.425 208.663 134.258 209.397 134.138C210.13 134.005 210.87 133.938 211.617 133.938C213.217 133.938 214.41 134.318 215.197 135.078C215.983 135.825 216.377 136.832 216.377 138.098C216.377 138.698 216.303 139.218 216.157 139.658C216.023 140.085 215.81 140.478 215.517 140.838C215.223 141.198 214.843 141.585 214.377 141.998C213.963 142.358 213.557 142.718 213.157 143.078C212.757 143.438 212.437 143.792 212.197 144.138H216.497V147.018H207.057Z" fill="#1C1C1C"/>
</g>
</g>
<defs>
<filter id="filter0_di_3766_157" x="83.4" y="103.918" width="186.2" height="77.2" filterUnits="userSpaceOnUse" color-interpolation-filters="sRGB">
<feFlood flood-opacity="0" result="BackgroundImageFix"/>
<feColorMatrix in="SourceAlpha" type="matrix" values="0 0 0 0 0 0 0 0 0 0 0 0 0 0 0 0 0 0 127 0" result="hardAlpha"/>
<feOffset dy="3"/>
<feGaussianBlur stdDeviation="4.05"/>
<feComposite in2="hardAlpha" operator="out"/>
<feColorMatrix type="matrix" values="0 0 0 0 0 0 0 0 0 0 0 0 0 0 0 0 0 0 0.2 0"/>
<feBlend mode="normal" in2="BackgroundImageFix" result="effect1_dropShadow_3766_157"/>
<feBlend mode="normal" in="SourceGraphic" in2="effect1_dropShadow_3766_157" result="shape"/>
<feColorMatrix in="SourceAlpha" type="matrix" values="0 0 0 0 0 0 0 0 0 0 0 0 0 0 0 0 0 0 127 0" result="hardAlpha"/>
<feOffset dy="2"/>
<feGaussianBlur stdDeviation="4.25"/>
<feComposite in2="hardAlpha" operator="arithmetic" k2="-1" k3="1"/>
<feColorMatrix type="matrix" values="0 0 0 0 0 0 0 0 0 0 0 0 0 0 0 0 0 0 0.2 0"/>
<feBlend mode="normal" in2="shape" result="effect2_innerShadow_3766_157"/>
</filter>
<clipPath id="clip0_3766_157">
<rect width="351" height="170" fill="white" transform="translate(0.5 0.0184326)"/>
</clipPath>
<clipPath id="clip1_3766_157">
<rect width="351" height="129" fill="white" transform="translate(0.5 0.0184326)"/>
</clipPath>
<clipPath id="clip2_3766_157">
<rect width="196" height="61" fill="white" transform="translate(78.5 109.018)"/>
</clipPath>
</defs>
</svg>
