<svg width="352" height="171" viewBox="0 0 352 171" fill="none" xmlns="http://www.w3.org/2000/svg">
<g clip-path="url(#clip0_3766_92)">
<g clip-path="url(#clip1_3766_92)">
<mask id="path-1-inside-1_3766_92" fill="white">
<path d="M139.475 154.018C124.675 154.018 112.742 151.485 103.675 146.418C94.7417 141.218 88.2083 133.685 84.075 123.818C79.9417 113.952 77.875 101.885 77.875 87.6184C77.875 73.3518 79.9417 61.2851 84.075 51.4184C88.2083 41.5518 94.7417 34.0851 103.675 29.0184C112.742 23.8184 124.675 21.2184 139.475 21.2184C161.608 21.2184 177.408 26.9518 186.875 38.4184C196.342 49.7518 201.075 66.1518 201.075 87.6184C201.075 108.952 196.342 125.352 186.875 136.818C177.408 148.285 161.608 154.018 139.475 154.018ZM139.475 122.018C148.142 122.018 154.142 119.152 157.475 113.418C160.942 107.552 162.675 98.9518 162.675 87.6184C162.675 76.1518 160.942 67.5518 157.475 61.8184C154.142 56.0851 148.142 53.2184 139.475 53.2184C130.808 53.2184 124.742 56.0851 121.275 61.8184C117.942 67.5518 116.275 76.1518 116.275 87.6184C116.275 98.9518 117.942 107.552 121.275 113.418C124.742 119.152 130.808 122.018 139.475 122.018ZM232.478 152.018V58.0184L211.078 61.2184V29.8184L270.078 21.2184V152.018H232.478Z"/>
</mask>
<path d="M103.675 146.418L100.154 152.468L100.207 152.499L100.26 152.529L103.675 146.418ZM84.075 123.818L77.6186 126.523L84.075 123.818ZM84.075 51.4184L77.6186 48.7137L84.075 51.4184ZM103.675 29.0184L107.128 35.1073L107.143 35.099L107.158 35.0906L103.675 29.0184ZM186.875 38.4184L181.477 42.875L181.49 42.8905L181.503 42.9059L186.875 38.4184ZM186.875 136.818L192.273 141.275H192.273L186.875 136.818ZM157.475 113.418L151.449 109.857L151.436 109.879L151.423 109.9L157.475 113.418ZM157.475 61.8184L151.423 65.3368L151.454 65.3888L151.485 65.4404L157.475 61.8184ZM121.275 61.8184L115.285 58.1965L115.254 58.248L115.223 58.3001L121.275 61.8184ZM121.275 113.418L115.189 116.876L115.236 116.959L115.285 117.04L121.275 113.418ZM139.475 147.018C125.392 147.018 114.763 144.596 107.09 140.308L100.26 152.529C110.721 158.375 123.958 161.018 139.475 161.018V147.018ZM107.196 140.369C99.6278 135.963 94.0984 129.629 90.5314 121.114L77.6186 126.523C82.3183 137.742 89.8556 146.474 100.154 152.468L107.196 140.369ZM90.5314 121.114C86.855 112.338 84.875 101.249 84.875 87.6184H70.875C70.875 102.521 73.0284 115.566 77.6186 126.523L90.5314 121.114ZM84.875 87.6184C84.875 73.9874 86.855 62.899 90.5314 54.1231L77.6186 48.7137C73.0284 59.6712 70.875 72.7161 70.875 87.6184H84.875ZM90.5314 54.1231C94.0927 45.6219 99.6022 39.3759 107.128 35.1073L100.222 22.9296C89.8812 28.7943 82.324 37.4817 77.6186 48.7137L90.5314 54.1231ZM107.158 35.0906C114.813 30.6998 125.416 28.2184 139.475 28.2184V14.2184C123.934 14.2184 110.67 16.937 100.192 22.9462L107.158 35.0906ZM139.475 28.2184C160.563 28.2184 173.886 33.68 181.477 42.875L192.273 33.9619C180.931 20.2235 162.654 14.2184 139.475 14.2184V28.2184ZM181.503 42.9059C189.531 52.5175 194.075 67.0664 194.075 87.6184H208.075C208.075 65.2371 203.152 46.986 192.247 33.9309L181.503 42.9059ZM194.075 87.6184C194.075 108.017 189.54 122.596 181.477 132.362L192.273 141.275C203.144 128.108 208.075 109.886 208.075 87.6184H194.075ZM181.477 132.362C173.886 141.557 160.563 147.018 139.475 147.018V161.018C162.654 161.018 180.931 155.013 192.273 141.275L181.477 132.362ZM139.475 129.018C149.759 129.018 158.555 125.489 163.527 116.937L151.423 109.9C149.729 112.815 146.525 115.018 139.475 115.018V129.018ZM163.501 116.98C167.898 109.539 169.675 99.4657 169.675 87.6184H155.675C155.675 98.4379 153.985 105.565 151.449 109.857L163.501 116.98ZM169.675 87.6184C169.675 75.6746 167.91 65.5482 163.465 58.1965L151.485 65.4404C153.973 69.5554 155.675 76.629 155.675 87.6184H169.675ZM163.527 58.3001C158.555 49.7482 149.759 46.2184 139.475 46.2184V60.2184C146.525 60.2184 149.729 62.422 151.423 65.3368L163.527 58.3001ZM139.475 46.2184C129.179 46.2184 120.393 49.7484 115.285 58.1965L127.265 65.4404C129.09 62.4218 132.438 60.2184 139.475 60.2184V46.2184ZM115.223 58.3001C110.966 65.6221 109.275 75.7027 109.275 87.6184H123.275C123.275 76.6008 124.917 69.4815 127.327 65.3368L115.223 58.3001ZM109.275 87.6184C109.275 99.4368 110.978 109.466 115.189 116.876L127.361 109.96C124.905 105.638 123.275 98.4667 123.275 87.6184H109.275ZM115.285 117.04C120.393 125.488 129.179 129.018 139.475 129.018V115.018C132.438 115.018 129.09 112.815 127.265 109.796L115.285 117.04ZM232.478 152.018H225.478V159.018H232.478V152.018ZM232.478 58.0184H239.478V49.8939L231.443 51.0954L232.478 58.0184ZM211.078 61.2184H204.078V69.343L212.113 68.1415L211.078 61.2184ZM211.078 29.8184L210.068 22.8916L204.078 23.7648V29.8184H211.078ZM270.078 21.2184H277.078V13.1241L269.068 14.2916L270.078 21.2184ZM270.078 152.018V159.018H277.078V152.018H270.078ZM239.478 152.018V58.0184H225.478V152.018H239.478ZM231.443 51.0954L210.043 54.2954L212.113 68.1415L233.513 64.9415L231.443 51.0954ZM218.078 61.2184V29.8184H204.078V61.2184H218.078ZM212.088 36.7452L271.088 28.1452L269.068 14.2916L210.068 22.8916L212.088 36.7452ZM263.078 21.2184V152.018H277.078V21.2184H263.078ZM270.078 145.018H232.478V159.018H270.078V145.018Z" fill="white" fill-opacity="0.4" mask="url(#path-1-inside-1_3766_92)"/>
</g>
<g clip-path="url(#clip2_3766_92)">
<path d="M91.5 109.018C91.5 109.018 143.291 111.518 176.5 111.518C209.709 111.518 261.5 109.018 261.5 109.018C265.262 117.724 267.938 122.218 274.5 129.018H78.5C85.4257 121.9 88.1215 117.476 91.5 109.018Z" fill="#969000"/>
<g filter="url(#filter0_di_3766_92)">
<path d="M91.5 109.018C91.5 109.018 143.291 111.518 176.5 111.518C209.709 111.518 261.5 109.018 261.5 109.018V160.018C261.5 160.018 209.926 170.018 176.5 170.018C143.074 170.018 91.5 160.018 91.5 160.018V109.018Z" fill="#FFD940"/>
</g>
<path d="M137.466 147.018V134.138H144.106C145.16 134.138 146.026 134.352 146.706 134.778C147.4 135.192 147.913 135.758 148.246 136.478C148.58 137.198 148.746 137.998 148.746 138.878C148.746 139.785 148.553 140.592 148.166 141.298C147.78 142.005 147.233 142.558 146.526 142.958C145.82 143.358 144.986 143.558 144.026 143.558H141.226V147.018H137.466ZM141.226 140.678H143.166C143.753 140.678 144.186 140.512 144.466 140.178C144.76 139.845 144.906 139.412 144.906 138.878C144.906 138.305 144.773 137.852 144.506 137.518C144.24 137.185 143.826 137.018 143.266 137.018H141.226V140.678ZM149.752 147.018V134.138H153.512V138.938H157.952V134.138H161.712V147.018H157.952V142.218H153.512V147.018H149.752ZM163.121 147.018L168.061 134.138H172.041L176.981 147.018H173.061L171.981 144.278H168.101L167.041 147.018H163.121ZM168.601 141.578H171.481L170.041 137.798L168.601 141.578ZM182.097 147.218C181.23 147.218 180.41 147.152 179.637 147.018C178.863 146.872 178.203 146.672 177.657 146.418V143.318C178.257 143.598 178.923 143.825 179.657 143.998C180.39 144.172 181.077 144.258 181.717 144.258C182.383 144.258 182.883 144.205 183.217 144.098C183.563 143.978 183.737 143.718 183.737 143.318C183.737 143.038 183.637 142.818 183.437 142.658C183.25 142.498 182.95 142.352 182.537 142.218C182.137 142.085 181.61 141.918 180.957 141.718C180.09 141.438 179.403 141.132 178.897 140.798C178.39 140.465 178.023 140.058 177.797 139.578C177.583 139.098 177.477 138.512 177.477 137.818C177.477 136.552 177.923 135.592 178.817 134.938C179.723 134.272 181.063 133.938 182.837 133.938C183.543 133.938 184.27 133.998 185.017 134.118C185.777 134.238 186.39 134.372 186.857 134.518V137.638C186.23 137.385 185.63 137.205 185.057 137.098C184.483 136.992 183.943 136.938 183.437 136.938C182.85 136.938 182.35 136.985 181.937 137.078C181.523 137.172 181.317 137.412 181.317 137.798C181.317 138.132 181.49 138.378 181.837 138.538C182.197 138.685 182.83 138.878 183.737 139.118C184.79 139.398 185.59 139.738 186.137 140.138C186.697 140.538 187.077 141.005 187.277 141.538C187.477 142.058 187.577 142.652 187.577 143.318C187.577 144.492 187.123 145.438 186.217 146.158C185.31 146.865 183.937 147.218 182.097 147.218ZM188.97 147.018V134.138H198.73V137.018H192.73V139.118H197.99V142.038H192.73V144.138H198.73V147.018H188.97ZM199.527 142.778V139.898H207.627V142.778H199.527ZM210.769 147.018V137.618L208.629 137.938V134.798L214.529 133.938V147.018H210.769Z" fill="#1C1C1C"/>
</g>
</g>
<defs>
<filter id="filter0_di_3766_92" x="83.4" y="103.918" width="186.2" height="77.2" filterUnits="userSpaceOnUse" color-interpolation-filters="sRGB">
<feFlood flood-opacity="0" result="BackgroundImageFix"/>
<feColorMatrix in="SourceAlpha" type="matrix" values="0 0 0 0 0 0 0 0 0 0 0 0 0 0 0 0 0 0 127 0" result="hardAlpha"/>
<feOffset dy="3"/>
<feGaussianBlur stdDeviation="4.05"/>
<feComposite in2="hardAlpha" operator="out"/>
<feColorMatrix type="matrix" values="0 0 0 0 0 0 0 0 0 0 0 0 0 0 0 0 0 0 0.2 0"/>
<feBlend mode="normal" in2="BackgroundImageFix" result="effect1_dropShadow_3766_92"/>
<feBlend mode="normal" in="SourceGraphic" in2="effect1_dropShadow_3766_92" result="shape"/>
<feColorMatrix in="SourceAlpha" type="matrix" values="0 0 0 0 0 0 0 0 0 0 0 0 0 0 0 0 0 0 127 0" result="hardAlpha"/>
<feOffset dy="2"/>
<feGaussianBlur stdDeviation="4.25"/>
<feComposite in2="hardAlpha" operator="arithmetic" k2="-1" k3="1"/>
<feColorMatrix type="matrix" values="0 0 0 0 0 0 0 0 0 0 0 0 0 0 0 0 0 0 0.2 0"/>
<feBlend mode="normal" in2="shape" result="effect2_innerShadow_3766_92"/>
</filter>
<clipPath id="clip0_3766_92">
<rect width="351" height="170" fill="white" transform="translate(0.5 0.0184326)"/>
</clipPath>
<clipPath id="clip1_3766_92">
<rect width="351" height="129" fill="white" transform="translate(0.5 0.0184326)"/>
</clipPath>
<clipPath id="clip2_3766_92">
<rect width="196" height="61" fill="white" transform="translate(78.5 109.018)"/>
</clipPath>
</defs>
</svg>
