<svg width="195" height="245" viewBox="0 0 195 245" fill="none" xmlns="http://www.w3.org/2000/svg">
<path fill-rule="evenodd" clip-rule="evenodd" d="M0.314697 205.91C45.0509 184.739 67.4187 159.862 67.4187 131.281C48.3508 129.164 32.5833 121.666 20.1158 108.786C7.64841 95.907 1.41476 80.999 1.41476 64.0618C1.41476 46.0661 7.46506 30.8934 19.5658 18.5434C31.6666 6.19334 46.884 0.0184326 65.2185 0.0184326C85.7532 0.0184326 103.537 8.04584 118.572 24.1009C133.606 40.1559 141.123 59.651 141.123 82.5868C141.123 151.394 101.154 205.204 21.2159 244.018L0.314697 205.91ZM158.191 205.91C203.294 184.739 225.845 159.862 225.845 131.281C206.41 129.164 190.459 121.666 177.992 108.786C165.524 95.907 159.291 80.999 159.291 64.0618C159.291 46.0661 165.433 30.8934 177.717 18.5434C190.001 6.19334 205.31 0.0184326 223.645 0.0184326C244.179 0.0184326 261.872 8.04584 276.723 24.1009C291.574 40.1559 298.999 59.651 298.999 82.5868C298.999 151.394 259.214 205.204 179.642 244.018L158.191 205.91Z" fill="white"/>
</svg>
