<svg width="305" height="561" viewBox="0 0 305 561" fill="none" xmlns="http://www.w3.org/2000/svg">
<path d="M337.666 289.939C330.663 332.354 317.878 369.668 302.887 395.706C295.39 408.726 287.355 418.903 279.237 425.493C271.118 432.082 262.964 435.048 255.195 433.765C247.425 432.482 240.658 427.053 235.088 418.203C229.518 409.354 225.181 397.134 222.268 382.395C216.442 352.92 216.331 313.477 223.334 271.061C230.337 228.646 243.121 191.332 258.113 165.294C265.61 152.274 273.644 142.097 281.763 135.507C289.882 128.918 298.036 125.952 305.805 127.235C313.574 128.518 320.342 133.947 325.912 142.797C331.481 151.646 335.818 163.866 338.732 178.605C344.558 208.08 344.669 247.523 337.666 289.939Z" stroke="url(#paint0_linear_198_2421)"/>
<path d="M289.938 223.334C332.354 230.337 369.667 243.122 395.705 258.113C408.726 265.61 418.903 273.645 425.492 281.763C432.082 289.882 435.047 298.036 433.765 305.805C432.482 313.574 427.053 320.342 418.203 325.912C409.354 331.482 397.134 335.819 382.395 338.732C352.92 344.558 313.477 344.669 271.061 337.666C228.645 330.663 191.332 317.878 165.294 302.887C152.273 295.39 142.096 287.355 135.507 279.237C128.917 271.118 125.952 262.964 127.235 255.195C128.517 247.426 133.946 240.658 142.796 235.088C151.646 229.518 163.865 225.181 178.605 222.268C208.08 216.442 247.522 216.331 289.938 223.334Z" stroke="url(#paint1_linear_198_2421)"/>
<path d="M327.596 246.752C352.637 281.696 369.981 317.121 377.792 346.133C381.698 360.641 383.213 373.518 382.132 383.918C381.051 394.319 377.382 402.181 370.981 406.768C364.58 411.355 355.956 412.302 345.759 409.982C335.564 407.663 323.857 402.089 311.374 393.727C286.413 377.004 258.444 349.193 233.403 314.248C208.363 279.304 191.018 243.879 183.207 214.867C179.301 200.359 177.786 187.482 178.868 177.082C179.949 166.681 183.618 158.819 190.018 154.232C196.419 149.645 205.044 148.698 215.24 151.018C225.436 153.337 237.143 158.911 249.625 167.273C274.587 183.996 302.556 211.807 327.596 246.752Z" stroke="url(#paint2_linear_198_2421)"/>
<path d="M154.232 370.982C149.645 364.581 148.698 355.956 151.018 345.76C153.337 335.564 158.911 323.857 167.273 311.375C183.995 286.413 211.807 258.444 246.751 233.404C281.696 208.363 317.12 191.019 346.132 183.208C360.64 179.301 373.518 177.787 383.918 178.868C394.319 179.949 402.181 183.618 406.768 190.019C411.355 196.42 412.301 205.044 409.982 215.24C407.663 225.436 402.089 237.143 393.726 249.626C377.004 274.587 349.193 302.556 314.248 327.597C279.304 352.637 243.879 369.982 214.867 377.793C200.359 381.699 187.481 383.214 177.081 382.132C166.681 381.051 158.818 377.382 154.232 370.982Z" stroke="url(#paint3_linear_198_2421)"/>
<defs>
<linearGradient id="paint0_linear_198_2421" x1="305.886" y1="126.742" x2="255.113" y2="434.258" gradientUnits="userSpaceOnUse">
<stop stop-color="white"/>
<stop offset="1" stop-color="white" stop-opacity="0"/>
</linearGradient>
<linearGradient id="paint1_linear_198_2421" x1="126.741" y1="255.113" x2="434.258" y2="305.887" gradientUnits="userSpaceOnUse">
<stop stop-color="white"/>
<stop offset="1" stop-color="white" stop-opacity="0"/>
</linearGradient>
<linearGradient id="paint2_linear_198_2421" x1="189.727" y1="153.825" x2="371.272" y2="407.175" gradientUnits="userSpaceOnUse">
<stop stop-color="white"/>
<stop offset="1" stop-color="white" stop-opacity="0"/>
</linearGradient>
<linearGradient id="paint3_linear_198_2421" x1="407.175" y1="189.728" x2="153.825" y2="371.273" gradientUnits="userSpaceOnUse">
<stop stop-color="white"/>
<stop offset="1" stop-color="white" stop-opacity="0"/>
</linearGradient>
</defs>
</svg>
